<svg width="17" height="17" fill="none" xmlns="http://www.w3.org/2000/svg"><g clip-path="url(#clip0_3023_8863)"><path d="M15.408 2.044a5.44 5.44 0 00-7.685 0L1.135 8.632a3.886 3.886 0 000 5.49 3.869 3.869 0 002.745 1.135 3.87 3.87 0 002.745-1.136l6.038-6.038c.44-.44.683-1.025.683-1.647 0-.622-.242-1.207-.682-1.647a2.332 2.332 0 00-3.294 0L5.42 8.738a.776.776 0 001.098 1.098l3.95-3.949a.777.777 0 011.098 1.098l-6.04 6.039a2.332 2.332 0 01-3.293 0 2.332 2.332 0 010-3.294L8.82 3.142a3.886 3.886 0 015.49 0 3.856 3.856 0 011.136 2.745 3.856 3.856 0 01-1.137 2.745L7.723 15.22a.776.776 0 001.098 1.097l6.587-6.587A5.399 5.399 0 0017 5.887a5.399 5.399 0 00-1.592-3.843z" fill="#000"/></g><defs><clipPath id="clip0_3023_8863"><path fill="#fff" d="M0 0h17v17H0z"/></clipPath></defs></svg>