<svg width="20" height="21" fill="none" xmlns="http://www.w3.org/2000/svg"><path d="M4.843 15.048a.506.506 0 01-.672.245l-2.244-1.046a.506.506 0 01.428-.917l2.244 1.046a.506.506 0 01.244.672zM3.759 5.936h.1V9.53a.506.506 0 001.012 0V5.936h5.044a2.97 2.97 0 002.968-2.968.506.506 0 10-1.012 0 1.958 1.958 0 01-1.956 1.956H3.759a1.956 1.956 0 010-3.912h2.85a2.908 2.908 0 00-.728 1.926.506.506 0 001.012 0 1.943 1.943 0 011.95-1.926h7.22a1.956 1.956 0 110 3.912h-2.456a.506.506 0 000 1.012h1.35V9.53a.506.506 0 101.013 0V5.936h.1a2.968 2.968 0 100-5.936H3.759a2.968 2.968 0 000 5.936zm14.2 7.057a.506.506 0 00-.667.259.688.688 0 01-.333.365l-1.236.583a.687.687 0 01-.49.022.506.506 0 00-.278.973c.165.048.336.072.508.073.237 0 .472-.05.687-.151l1.238-.577c.375-.18.671-.49.832-.875a.506.506 0 00-.26-.667l-.001-.005zm-12.766.1l-2.244-1.046a.506.506 0 00-.428.917l2.244 1.046a.506.506 0 00.428-.917zm14.47 1.2a2.608 2.608 0 01-1.354 1.482l-1.8.841a2.635 2.635 0 01-3.23-.832l-1.991.928 6.523 3.042a.507.507 0 11-.428.917l-7.293-3.4-7.264 3.387a.506.506 0 01-.428-.917l6.494-3.028-1.963-.913a2.635 2.635 0 01-3.23.832L.854 15.306a1.48 1.48 0 01-.711-1.964l.97-2.08a1.48 1.48 0 011.963-.715l2.844 1.326a2.635 2.635 0 011.439 3.009l2.732 1.274 2.76-1.287a2.63 2.63 0 011.44-3.009l1.8-.841a2.623 2.623 0 013.575 3.281l-.002-.007zM6.322 13.7a1.6 1.6 0 00-.832-.911l-2.846-1.324a.468.468 0 00-.618.225l-.97 2.08a.466.466 0 00.225.618l2.844 1.326A1.611 1.611 0 006.32 13.7zm12.342-.986a1.615 1.615 0 00-2.144-.78l-1.8.841a1.615 1.615 0 00-.81 2.076c.023.043.044.088.062.134a1.62 1.62 0 002.11.714l1.8-.841a1.62 1.62 0 00.78-2.143l.002-.001z" fill="#84889C"/></svg>