<svg width="24" height="24" fill="none" xmlns="http://www.w3.org/2000/svg"><path d="M20.396 6.723l2.976-2.97a.675.675 0 00-.477-1.154h-1.351V1.34a.675.675 0 00-1.161-.47L17.5 3.843a.675.675 0 00-.19.47v1.564a10.116 10.116 0 101.043 1.043h1.563a.676.676 0 00.479-.198zm-3.5 13.074a8.807 8.807 0 11-.5-12.92l-.96.958a7.418 7.418 0 10.956.955l.959-.959a8.824 8.824 0 01-.455 11.966zm-6.208-8.279a2.022 2.022 0 101.829 1.152l.988-.988a3.372 3.372 0 11-.955-.955l-.988.988a2.02 2.02 0 00-.874-.197zm.675 2.025a.675.675 0 11-.051-.258c.034.082.051.17.05.26v-.002zm2.154-3.78a4.721 4.721 0 10.955.954l.963-.963a6.067 6.067 0 11-.955-.955l-.963.963zm5.142-4.189v-.987l1.53-1.58v.267a.675.675 0 00.676.675h.394l-1.62 1.621-.98.004z" fill="#84889C"/></svg>