<svg width="16" height="23" fill="none" xmlns="http://www.w3.org/2000/svg"><path d="M13.442.888H2.241A2.242 2.242 0 000 3.127v17.52a2.242 2.242 0 002.241 2.24h11.2a2.242 2.242 0 002.241-2.238V3.127a2.242 2.242 0 00-2.24-2.24zM5.094 2.177h5.5v.365a.27.27 0 01-.268.269H5.362a.27.27 0 01-.268-.27v-.364zm9.3 18.47a.952.952 0 01-.952.95H2.241a.952.952 0 01-.952-.95V3.127a.952.952 0 01.952-.95H3.8v.365a1.559 1.559 0 001.561 1.557h4.959a1.559 1.559 0 001.557-1.558v-.364h1.564a.952.952 0 01.952.95v17.52h.001z" fill="#84889C"/><path d="M9.2 19.473H6.483a.645.645 0 000 1.289H9.2a.644.644 0 100-1.29z" fill="#84889C"/></svg>