<svg width="17" height="17" fill="none" xmlns="http://www.w3.org/2000/svg"><path fill-rule="evenodd" clip-rule="evenodd" d="M.25.25h4.5v4.5H.25V.25zm1.5 1.5v1.5h1.5v-1.5h-1.5zm4.5-1.5h4.5v4.5h-4.5V.25zm1.5 1.5v1.5h1.5v-1.5h-1.5zm4.5-1.5h4.5v4.5h-4.5V.25zm1.5 1.5v1.5h1.5v-1.5h-1.5zM.25 6.25h4.5v4.5H.25v-4.5zm1.5 1.5v1.5h1.5v-1.5h-1.5zm4.5-1.5h4.5v4.5h-4.5v-4.5zm1.5 1.5v1.5h1.5v-1.5h-1.5zm4.5-1.5h4.5v4.5h-4.5v-4.5zm1.5 1.5v1.5h1.5v-1.5h-1.5zm-13.5 4.5h4.5v4.5H.25v-4.5zm1.5 1.5v1.5h1.5v-1.5h-1.5zm4.5-1.5h4.5v4.5h-4.5v-4.5zm1.5 1.5v1.5h1.5v-1.5h-1.5zm4.5-1.5h4.5v4.5h-4.5v-4.5zm1.5 1.5v1.5h1.5v-1.5h-1.5z" fill="#0F1435"/></svg>