<svg width="21" height="22" fill="none" xmlns="http://www.w3.org/2000/svg"><path d="M0 .882v6.59a2.214 2.214 0 001.648 2.139V21.46H18.93V9.61a2.214 2.214 0 001.648-2.137V.882H0zm16.117 1.206v5.385a1.005 1.005 0 01-2.01 0V2.088h2.01zm-3.215 0v5.385a1.005 1.005 0 01-2.01 0V2.088h2.01zm-3.215 0v5.385a1.005 1.005 0 11-2.01 0V2.088h2.01zm-3.215 0v5.385a1.005 1.005 0 11-2.01 0V2.088h2.01zM1.206 7.473V2.088h2.05v5.385a1.006 1.006 0 01-1 1h-.04a1.006 1.006 0 01-1.01-1zm1.648 12.78V9.6a2.21 2.21 0 001-.611 2.205 2.205 0 003.215 0 2.205 2.205 0 003.215 0 2.205 2.205 0 003.215 0 2.205 2.205 0 003.215 0c.272.29.618.5 1 .61v10.655H2.854zm16.518-12.78a1.006 1.006 0 01-1 1h-.04a1.006 1.006 0 01-1-1V2.088h2.05l-.01 5.385z" fill="#84889C"/><path d="M4.074 12.353l1.447-1.447.853.853-1.447 1.447-.853-.853zm.403 3.335l4.38-4.381.854.853-4.381 4.38-.853-.852z" fill="#84889C"/></svg>