<svg width="24" height="23" fill="none" xmlns="http://www.w3.org/2000/svg"><path d="M19.846 11.114a.677.677 0 00-.685.685v9.364h-4.857V17.34a.677.677 0 00-.66-.672h-3.509a.693.693 0 00-.7.672v3.823H4.591v-9.051a.672.672 0 00-1.345 0v9.736a.666.666 0 00.66.662h6.23a.666.666 0 00.66-.662v-3.823h2.166v3.823a.67.67 0 00.685.662h6.2a.666.666 0 00.66-.662v-10.05a.67.67 0 00-.66-.684z" fill="#84889C"/><path d="M23.57 11.648l-5.4-5.427v-3.7a.683.683 0 00-.7-.683.669.669 0 00-.66.683v2.345L12.35.379a.656.656 0 00-.46-.213.677.677 0 00-.487.213L.208 11.573a.64.64 0 000 .946.643.643 0 00.946 0L11.89 1.81 22.6 12.62a.662.662 0 00.486.175c.178 0 .35-.061.486-.175a.706.706 0 00-.003-.972z" fill="#84889C"/></svg>