<svg width="20" height="20" fill="none" xmlns="http://www.w3.org/2000/svg"><path d="M14.558 9.41a.834.834 0 101.178 1.179l1.287-1.287a4.474 4.474 0 00-6.326-6.326L9.411 4.263a.833.833 0 101.178 1.178l1.287-1.286a2.807 2.807 0 113.969 3.969L14.558 9.41zm-9.116 1.18a.833.833 0 10-1.178-1.18l-1.287 1.287a4.473 4.473 0 006.326 6.326l1.287-1.287a.833.833 0 00-1.179-1.178l-1.286 1.286a2.806 2.806 0 01-3.97-3.969l1.287-1.287z" fill="#0F1435"/><path d="M6.838 13.167a.833.833 0 001.178 0l5.151-5.151a.834.834 0 10-1.178-1.179l-5.151 5.147a.833.833 0 000 1.183z" fill="#0F1435"/></svg>