<svg width="16" height="16" fill="none" xmlns="http://www.w3.org/2000/svg"><path d="M11.725 10.465a1.5 1.5 0 00-2.125 0l-.725.725A13.311 13.311 0 014.81 7.125l.725-.725a1.5 1.5 0 000-2.125L4.12 2.865a1.465 1.465 0 00-1.055-.44A1.5 1.5 0 002 2.865l-.68.675A3.185 3.185 0 00.5 6.165c.16 1.875 1.39 4.13 3.285 6.03 1.895 1.9 4.175 3.125 6.05 3.305.14.008.28.008.42 0a3.034 3.034 0 002.205-.82l.675-.68a1.5 1.5 0 000-2.12l-1.41-1.415zm.705 2.83l-.68.675a2.284 2.284 0 01-1.83.5c-1.625-.14-3.695-1.29-5.405-3-1.71-1.71-2.86-3.765-3.015-5.39A2.265 2.265 0 012 4.25l.705-.68a.5.5 0 01.547-.108.5.5 0 01.163.108L4.83 5a.5.5 0 010 .705l-1 1a.5.5 0 00-.08.605 13.745 13.745 0 002.165 2.79c.833.839 1.77 1.567 2.79 2.165a.5.5 0 00.605-.08l1-1a.5.5 0 01.705 0L12.43 12.6a.5.5 0 01.145.355.5.5 0 01-.145.34zm.87-10.6A7.46 7.46 0 008 .5a.5.5 0 100 1 6.5 6.5 0 016.5 6.555.5.5 0 001 0 7.453 7.453 0 00-2.2-5.36z" fill="#fff"/><path d="M10.455 5.555a3 3 0 01.885 2.155.5.5 0 001 0 3.998 3.998 0 00-4-4.05.5.5 0 100 1 3 3 0 012.115.895z" fill="#fff"/></svg>