<svg width="23" height="20" fill="none" xmlns="http://www.w3.org/2000/svg"><path d="M22.654 5.558a22.856 22.856 0 00-5.978-1.891l-.141-.6A3.462 3.462 0 0013.15.38h-3.3a3.465 3.465 0 00-3.385 2.687l-.141.6a22.71 22.71 0 00-5.985 1.89A.635.635 0 000 6.12v7.5a5.456 5.456 0 005.45 5.45.637.637 0 000-1.273 4.182 4.182 0 01-4.177-4.177v-7.1a23.794 23.794 0 015.681-1.674.636.636 0 00.509-.481L7.7 3.352a2.2 2.2 0 012.145-1.7h3.3a2.194 2.194 0 012.145 1.7l.236 1.014a.63.63 0 00.509.48c1.956.322 3.864.885 5.681 1.675v7.1a4.182 4.182 0 01-4.177 4.177.637.637 0 000 1.273 5.456 5.456 0 005.45-5.45v-7.5a.625.625 0 00-.335-.563z" fill="#84889C"/><path d="M2.084 4.257c.068 0 .136-.01.2-.033a24.53 24.53 0 012.09-.589A.635.635 0 004.08 2.4a28.6 28.6 0 00-2.2.618.636.636 0 00-.405.8.65.65 0 00.608.439zm9.412.519a7.329 7.329 0 10-.006 14.658 7.329 7.329 0 00.006-14.658zm0 13.385a6.056 6.056 0 11-.004-12.112 6.056 6.056 0 01.004 12.112z" fill="#84889C"/></svg>