<svg width="22" height="23" fill="none" xmlns="http://www.w3.org/2000/svg"><path d="M14.75 22.234a.51.51 0 01-.258-.07L9.655 19.34a.513.513 0 01-.193-.686l.608-1.13a.512.512 0 01.7-.206l.589.324 3.044-5.191-4.438-2.152a4.2 4.2 0 01-1.808-5.881l.018-.03a4.2 4.2 0 015.543-1.611l5.554 2.852a4.2 4.2 0 011.755 5.78l-5.828 10.557a.513.513 0 01-.45.265v.003zm-4.151-3.53l3.956 2.31 5.576-10.1a3.177 3.177 0 00-1.326-4.372l-5.556-2.853a3.144 3.144 0 00-1.45-.351 3.188 3.188 0 00-2.755 1.59l-.018.03a3.18 3.18 0 001.385 4.418l4.937 2.394a.512.512 0 01.219.72l-3.577 6.1a.512.512 0 01-.69.19l-.572-.315-.13.239z" fill="#0F1435"/><path d="M7.72 6.409a.507.507 0 01-.237-.06 2.068 2.068 0 111.929-3.658.513.513 0 01-.478.907 1.041 1.041 0 00-.97 1.842.512.512 0 01-.24.966l-.003.003z" fill="#0F1435"/><path d="M6.372 5.437a.51.51 0 01-.234-.059 1.803 1.803 0 111.68-3.19.513.513 0 01-.478.907.777.777 0 00-.724 1.376.513.513 0 01-.239.966h-.005z" fill="#0F1435"/><path d="M5.83 3.694a.507.507 0 01-.223-.051L1.58 1.679a.513.513 0 01.45-.922L6.056 2.72a.513.513 0 01-.225.973zm7.35 12.023a.51.51 0 01-.2-.041c-2.15-.915-3.287-1.984-3.382-3.18a3.116 3.116 0 011.5-2.52.513.513 0 01.547.868c-.3.194-1.08.855-1.02 1.574.063.76 1.044 1.583 2.762 2.314a.513.513 0 01-.2.985h-.006zm2.536-8.767a.514.514 0 01-.245-.063l-3.513-1.929a.514.514 0 01.494-.9l3.512 1.929a.513.513 0 01-.247.962l-.001.001zM14.61 8.507a.514.514 0 01-.246-.064l-3.512-1.929a.512.512 0 11.494-.9l3.512 1.93a.513.513 0 01-.247.961v.002zm-1.172 1.555a.51.51 0 01-.246-.064L9.68 8.068a.513.513 0 01.494-.9l3.512 1.93a.513.513 0 01-.247.962v.002zm-3.63 12.046a16.81 16.81 0 01-4.109-.653c-4.14-1.089-4.683-.535-4.688-.53.023.054.05.105.08.155a.513.513 0 01-.829.6 1.2 1.2 0 01-.1-1.34c.38-.555 1.38-1.044 5.794.118 4.043 1.064 5.226.5 5.548.214a.501.501 0 00.19-.362.512.512 0 01.815-.507.513.513 0 01.198.35 1.48 1.48 0 01-.516 1.28 3.518 3.518 0 01-2.383.675z" fill="#0F1435"/></svg>