<svg width="16" height="13" fill="none" xmlns="http://www.w3.org/2000/svg"><path d="M14.368 3.666c0-.145-.005-.285-.012-.424A6.547 6.547 0 0016 1.539a6.85 6.85 0 01-1.89.518A3.263 3.263 0 0015.553.244a6.563 6.563 0 01-2.08.794A3.28 3.28 0 007.8 3.281c0 .26.022.51.076.748A9.287 9.287 0 011.114.597a3.308 3.308 0 00-.45 1.658c0 1.136.585 2.143 1.458 2.726A3.242 3.242 0 01.64 4.577v.036a3.296 3.296 0 002.628 3.224 3.468 3.468 0 01-1.48.052 3.312 3.312 0 003.064 2.285 6.593 6.593 0 01-4.067 1.399c-.269 0-.527-.012-.785-.045A9.237 9.237 0 005.032 13c6.036 0 9.336-5 9.336-9.334z" fill="#fff"/></svg>