<svg width="19" height="24" fill="none" xmlns="http://www.w3.org/2000/svg"><path d="M0 .067v23.166h18.551V.067H0zm17.194 1.357v4.073h-1.358V2.782h-5.43v2.715H1.357V1.424h15.837zm-2.715 4.073h-2.715V4.139h2.715v1.358zM1.357 21.876V6.854h15.837v15.022H1.357z" fill="#84889C"/><path d="M5.43 2.782h1.357v1.357H5.43V2.782zm-1.357.678a.679.679 0 11-1.358 0 .679.679 0 011.358 0zm5.204 5.294a5.882 5.882 0 105.882 5.882 5.889 5.889 0 00-5.882-5.882zm0 1.357a4.531 4.531 0 014.5 4.036 5.9 5.9 0 01-4.265-.165 7.133 7.133 0 00-4.658-.291 4.532 4.532 0 014.423-3.58zm0 9.049a4.531 4.531 0 01-4.5-4.041 5.856 5.856 0 014.289.146 7.82 7.82 0 002.73.555 7.937 7.937 0 001.908-.25 4.532 4.532 0 01-4.427 3.59z" fill="#84889C"/></svg>