<svg width="23" height="23" fill="none" xmlns="http://www.w3.org/2000/svg"><path fill-rule="evenodd" clip-rule="evenodd" d="M19.128 3.841A10.616 10.616 0 0011.569.708C5.68.708.887 5.5.886 11.392a10.65 10.65 0 001.426 5.341L.795 22.27l5.664-1.486c1.56.852 3.318 1.3 5.106 1.3h.005c5.888 0 10.682-4.793 10.684-10.684a10.619 10.619 0 00-3.126-7.559zm-7.559 16.44h-.003a8.87 8.87 0 01-4.52-1.239l-.324-.192-3.362.882.898-3.278-.212-.336a8.858 8.858 0 01-1.357-4.726c.001-4.896 3.985-8.88 8.884-8.88a8.82 8.82 0 016.279 2.604A8.828 8.828 0 0120.45 11.4c-.002 4.897-3.985 8.881-8.88 8.881zm4.872-6.652c-.267-.134-1.58-.78-1.825-.869-.244-.089-.422-.133-.6.134s-.69.869-.845 1.047c-.156.178-.312.2-.579.067-.267-.134-1.127-.416-2.147-1.326-.794-.707-1.33-1.582-1.485-1.849-.156-.267-.001-.398.117-.545.289-.359.578-.735.667-.913.09-.178.045-.334-.022-.468-.067-.133-.6-1.447-.823-1.982-.217-.52-.437-.45-.6-.458-.156-.008-.334-.01-.512-.01a.98.98 0 00-.712.334c-.245.268-.935.914-.935 2.228s.957 2.583 1.09 2.761c.134.179 1.883 2.875 4.561 4.032.637.275 1.134.439 1.522.562.64.203 1.222.175 1.682.106.513-.077 1.58-.646 1.802-1.27.222-.623.222-1.158.155-1.27-.066-.11-.244-.177-.511-.311z" fill="#fff"/></svg>