<svg width="17" height="17" fill="none" xmlns="http://www.w3.org/2000/svg"><path d="M8.5 0a2.264 2.264 0 00-2.262 2.261v.683h1.17V2.26a1.093 1.093 0 012.184 0v.683h1.17V2.26A2.264 2.264 0 008.5 0zM10.1 14.251c0 .87-.71 1.58-1.58 1.58h-.039c-.87 0-1.579-.71-1.579-1.58h-1.17A2.752 2.752 0 008.482 17h.038a2.752 2.752 0 002.75-2.749H10.1z" fill="#E31B23"/><path d="M16.068 14.032l-1.661-2.585V8.13c0-3.289-2.65-5.965-5.907-5.965-3.258 0-5.908 2.676-5.908 5.965v3.318L.931 14.032a.585.585 0 00.492.901h14.153a.585.585 0 00.492-.9zm-13.574-.268l1.175-1.829a.584.584 0 00.093-.316V8.13c0-2.644 2.125-4.795 4.738-4.795 2.612 0 4.737 2.151 4.737 4.795v3.49c0 .112.032.222.093.316l1.175 1.829H2.494z" fill="#E31B23"/></svg>