<svg width="14" height="14" fill="none" xmlns="http://www.w3.org/2000/svg"><g clip-path="url(#clip0)" fill="#84889C"><path d="M13.86 5.618a6.953 6.953 0 00-2.986-4.447A6.978 6.978 0 005.837.098l-.035.005C2 .763-.556 4.395.105 8.196c.052.304.126.608.218.9a5.238 5.238 0 01-.267 3.779.582.582 0 00.681.81l2.614-.713a6.936 6.936 0 005.029.888 6.952 6.952 0 004.447-2.986 6.955 6.955 0 001.033-5.256zm-2.005 4.61a5.793 5.793 0 01-3.706 2.489 5.804 5.804 0 01-4.38-.861.585.585 0 00-.476-.077l-1.78.485a6.415 6.415 0 00-.076-3.516 5.838 5.838 0 014.538-7.491l.031-.005a5.813 5.813 0 014.222.89 5.793 5.793 0 012.489 3.706 5.793 5.793 0 01-.862 4.38z"/><path d="M9.33 5.25H4.666a.583.583 0 100 1.166h4.666a.583.583 0 100-1.166zM9.33 7.583H4.666a.583.583 0 100 1.166h4.666a.583.583 0 100-1.166z"/></g><defs><clipPath id="clip0"><path fill="#fff" d="M0 0h14v14H0z"/></clipPath></defs></svg>