<svg width="15" height="15" fill="none" xmlns="http://www.w3.org/2000/svg"><g clip-path="url(#clip0)" fill="#84889C"><path d="M9.993 8.736L8.041 7.272V4.29a.542.542 0 10-1.084 0v3.254c0 .17.08.331.217.433l2.169 1.627a.539.539 0 00.759-.109.541.541 0 00-.109-.759z"/><path d="M7.5.5c-3.86 0-7 3.14-7 7s3.14 7 7 7 7-3.14 7-7-3.14-7-7-7zm0 12.916A5.923 5.923 0 011.584 7.5 5.923 5.923 0 017.5 1.584 5.922 5.922 0 0113.416 7.5 5.923 5.923 0 017.5 13.416z"/></g><defs><clipPath id="clip0"><path fill="#fff" transform="translate(.5 .5)" d="M0 0h14v14H0z"/></clipPath></defs></svg>