<svg width="19" height="19" fill="none" xmlns="http://www.w3.org/2000/svg"><path d="M13.475 5.485a.742.742 0 00-.821-.153l-8.238 3.6a.742.742 0 00.03 1.372l3.07 1.18 1.165 3.032a.747.747 0 00.708.513h.003a.742.742 0 00.678-.448l3.563-8.276a.742.742 0 00-.158-.82zM9.427 12.32l-.645-1.676a.742.742 0 00-.426-.427l-1.69-.65 4.86-2.123-2.099 4.876z" fill="#000"/><path d="M16.218 2.782A9.438 9.438 0 009.5 0a9.438 9.438 0 00-6.718 2.782A9.438 9.438 0 000 9.5c0 2.537.988 4.923 2.782 6.718A9.438 9.438 0 009.5 19a9.485 9.485 0 004.916-1.37.742.742 0 10-.77-1.269A8 8 0 019.5 17.516c-4.42 0-8.016-3.596-8.016-8.016S5.08 1.484 9.5 1.484 17.516 5.08 17.516 9.5a7.98 7.98 0 01-1.36 4.449.742.742 0 101.234.825A9.463 9.463 0 0019 9.5a9.438 9.438 0 00-2.782-6.718z" fill="#000"/></svg>