<svg width="20" height="20" fill="none" xmlns="http://www.w3.org/2000/svg"><g clip-path="url(#clip0)"><path d="M.862 6.403c-.41.523-.606 1.083-.58 1.66.024.636.309 1.134.543 1.44-.272.677-.377 1.743.531 2.571.665.607 1.794.879 3.358.803 1.1-.05 2.02-.255 2.058-.263h.004c.21-.038.431-.084.657-.134.017.268-.03.933-.523 2.43-.585 1.782-.552 3.145.109 4.057C7.713 19.925 8.822 20 9.148 20c.313 0 .602-.13.807-.368.464-.54.41-1.535.351-1.995.552-1.48 2.1-5.11 3.409-6.119a.441.441 0 00.067-.058c.384-.406.644-.845.82-1.23.246.134.527.21.828.21h2.55c.963 0 1.74-.783 1.74-1.74V1.902c0-.962-.781-1.74-1.74-1.74h-2.55c-.373 0-.72.117-1.004.318l-.983-.117c-.15-.021-2.827-.36-5.575-.305A18.72 18.72 0 006.467 0c-.749 0-1.401.059-1.945.176C3.242.448 2.368.99 1.925 1.79a2.56 2.56 0 00-.285 1.602c-.832.753-.978 1.585-.949 2.17.017.34.092.628.171.841zm17.119-5.11c.339 0 .61.275.61.61v6.8c0 .34-.276.611-.61.611H15.43a.611.611 0 01-.611-.61V1.906c0-.339.276-.61.61-.61h2.552v-.005zm-16.048 5.6a.562.562 0 00.075-.682c0-.004-.171-.297-.192-.699-.03-.548.234-1.033.786-1.447a.57.57 0 00.193-.644c0-.004-.18-.556.113-1.079.28-.502.903-.861 1.848-1.062.757-.163 1.786-.193 3.05-.092h.058c2.689-.059 5.407.293 5.437.297h.004l.422.05a1.772 1.772 0 00-.037.368v6.8c0 .18.029.356.08.52-.076.28-.285.902-.779 1.434-1.878 1.489-3.714 6.512-3.793 6.729a.53.53 0 00-.025.28c.07.469.046 1.042-.055 1.213-.221-.004-.82-.067-1.179-.565-.427-.59-.41-1.643.05-3.04.703-2.129.761-3.25.205-3.743a.912.912 0 00-.912-.163c-.255.058-.497.108-.727.146l-.055.013c-1.284.28-3.584.451-4.383-.276-.677-.62-.196-1.44-.142-1.527a.56.56 0 00-.1-.728c-.005-.004-.444-.418-.465-.974-.016-.372.16-.753.523-1.13z" fill="#84889C"/></g><defs><clipPath id="clip0"><path fill="#fff" transform="rotate(-180 10 10)" d="M0 0h20v20H0z"/></clipPath></defs></svg>