<svg width="19" height="19" fill="none" xmlns="http://www.w3.org/2000/svg"><path d="M9.497.27C5.715.27 2.123-.067.751 3.454.185 4.908.267 6.797.267 9.501c0 2.373-.076 4.603.484 6.046 1.369 3.523 4.99 3.185 8.744 3.185 3.622 0 7.356.377 8.745-3.185.568-1.469.484-3.33.484-6.046 0-3.606.2-5.934-1.55-7.682C15.404.048 13.01.269 9.493.269h.004zM8.67 1.933c7.89-.012 8.894-.89 8.34 11.295-.197 4.31-3.479 3.836-7.512 3.836-7.354 0-7.566-.21-7.566-7.567 0-7.443.584-7.56 6.738-7.566v.002zm5.754 1.532a1.107 1.107 0 100 2.215 1.107 1.107 0 000-2.215zM9.497 4.76a4.74 4.74 0 000 9.48 4.739 4.739 0 004.739-4.74 4.74 4.74 0 00-4.739-4.74zm0 1.664c4.068 0 4.073 6.154 0 6.154-4.067 0-4.073-6.154 0-6.154z" fill="#fff"/></svg>