<svg width="21" height="21" fill="none" xmlns="http://www.w3.org/2000/svg"><g clip-path="url(#clip0)"><path d="M1.311 1.429C-.339 3.143 0 4.964 0 10.495c0 4.594-.802 9.2 3.393 10.284 1.31.336 12.916.336 14.224-.002 1.747-.45 3.168-1.867 3.362-4.338.027-.344.027-11.536-.001-11.888C20.77 1.92 19.15.403 17.017.096 16.527.026 16.43.004 13.92 0 5.019.004 3.067-.392 1.311 1.429z" fill="url(#paint0_linear)"/><path d="M10.497 2.747c-3.177 0-6.194-.283-7.346 2.675-.476 1.221-.407 2.807-.407 5.079 0 1.993-.064 3.867.407 5.079 1.15 2.959 4.19 2.675 7.344 2.675 3.043 0 6.18.317 7.346-2.675.477-1.234.407-2.797.407-5.079 0-3.03.167-4.985-1.302-6.453-1.488-1.488-3.5-1.301-6.452-1.301h.003zm-.695 1.397c6.628-.01 7.471-.747 7.006 9.488-.166 3.62-2.922 3.222-6.31 3.222-6.178 0-6.355-.176-6.355-6.356 0-6.252.49-6.35 5.66-6.356v.002zm4.834 1.287a.93.93 0 100 1.86.93.93 0 000-1.86zM10.497 6.52a3.982 3.982 0 10.001 7.964 3.982 3.982 0 000-7.964zm0 1.397c3.417 0 3.421 5.17 0 5.17-3.416 0-3.421-5.17 0-5.17z" fill="#fff"/></g><defs><linearGradient id="paint0_linear" x1="1.352" y1="19.659" x2="20.869" y2="2.767" gradientUnits="userSpaceOnUse"><stop stop-color="#FD5"/><stop offset=".5" stop-color="#FF543E"/><stop offset="1" stop-color="#C837AB"/></linearGradient><clipPath id="clip0"><path fill="#fff" d="M0 0h21v21H0z"/></clipPath></defs></svg>