<svg width="20" height="20" fill="none" xmlns="http://www.w3.org/2000/svg"><g clip-path="url(#clip0)"><path d="M19.137 13.597c.41-.523.607-1.083.582-1.66-.025-.636-.31-1.134-.544-1.44.272-.677.377-1.743-.531-2.571-.665-.607-1.794-.879-3.358-.803-1.1.05-2.02.255-2.058.263h-.004c-.21.038-.431.084-.657.134-.017-.268.03-.933.523-2.43.585-1.782.552-3.145-.109-4.057C12.287.075 11.178 0 10.852 0c-.313 0-.602.13-.807.368-.464.54-.41 1.535-.351 1.995-.552 1.48-2.1 5.11-3.409 6.119-.025.017-.046.037-.067.058a4.493 4.493 0 00-.82 1.23 1.726 1.726 0 00-.828-.21H2.02c-.963 0-1.74.783-1.74 1.74v6.797c0 .962.781 1.74 1.74 1.74h2.55c.373 0 .72-.117 1.004-.318l.983.117c.15.021 2.827.36 5.575.305.498.038.966.059 1.401.059.749 0 1.401-.059 1.945-.176 1.28-.272 2.154-.815 2.597-1.614a2.56 2.56 0 00.285-1.602c.832-.753.978-1.585.949-2.17a2.823 2.823 0 00-.172-.841zM2.02 18.707a.611.611 0 01-.61-.61v-6.8c0-.34.276-.611.61-.611H4.57c.34 0 .611.276.611.61v6.797c0 .339-.276.61-.61.61H2.018v.005zm16.048-5.6a.562.562 0 00-.075.682c0 .004.171.297.192.699.03.548-.234 1.033-.786 1.447a.57.57 0 00-.193.644c0 .004.18.556-.113 1.079-.28.502-.903.861-1.848 1.062-.757.163-1.786.193-3.05.092h-.058c-2.689.059-5.408-.293-5.437-.297h-.004l-.422-.05c.025-.117.037-.242.037-.368v-6.8c0-.18-.029-.356-.08-.52.076-.28.285-.902.779-1.434 1.878-1.489 3.714-6.512 3.793-6.729a.53.53 0 00.025-.28c-.07-.469-.046-1.042.055-1.213.221.004.82.067 1.179.564.427.59.41 1.644-.05 3.041-.703 2.129-.761 3.25-.205 3.743.276.247.644.26.912.163.255-.058.497-.108.727-.146l.055-.013c1.284-.28 3.584-.451 4.383.276.677.62.196 1.44.142 1.527a.56.56 0 00.1.728c.005.004.444.418.465.974.016.373-.16.753-.523 1.13z" fill="#000"/></g><defs><clipPath id="clip0"><path fill="#fff" d="M0 0h20v20H0z"/></clipPath></defs></svg>