<svg width="15" height="18" fill="none" xmlns="http://www.w3.org/2000/svg"><path d="M7.523.063a7.088 7.088 0 00-5.034 12.074l-.001.001 5.011 5.012 4.528-4.528A7.088 7.088 0 007.523.062zm3.43 11.257l-.062.051-.057.058-3.335 3.334-3.511-3.511-.3-.303A5.366 5.366 0 012.123 7.15c0-2.977 2.423-5.4 5.4-5.4 2.978 0 5.4 2.423 5.4 5.4a5.385 5.385 0 01-1.97 4.17z" fill="#6B6F87"/><path d="M7.522 4.45a2.7 2.7 0 100 5.4 2.7 2.7 0 000-5.4zm0 3.713a1.014 1.014 0 010-2.025 1.014 1.014 0 010 2.025z" fill="#6B6F87"/></svg>