<svg width="18" height="18" fill="none" xmlns="http://www.w3.org/2000/svg"><path fill-rule="evenodd" clip-rule="evenodd" d="M14.968 3.006A8.308 8.308 0 009.053.554C4.444.554.693 4.304.691 8.915c0 1.474.385 2.913 1.116 4.18L.621 17.43l4.433-1.163a8.353 8.353 0 003.996 1.018h.003c4.609 0 8.36-3.752 8.362-8.362a8.31 8.31 0 00-2.447-5.916zM9.053 15.872H9.05a6.942 6.942 0 01-3.537-.97l-.254-.15-2.63.69.702-2.565-.165-.263a6.933 6.933 0 01-1.063-3.698 6.96 6.96 0 016.953-6.95c1.857 0 3.602.724 4.914 2.038a6.909 6.909 0 012.034 4.917c-.002 3.833-3.12 6.95-6.95 6.95zm3.813-5.206c-.21-.104-1.236-.61-1.428-.68-.191-.07-.33-.104-.47.105-.14.21-.54.68-.662.82-.122.139-.243.156-.452.052-.21-.105-.883-.326-1.68-1.038-.622-.554-1.041-1.238-1.163-1.447-.122-.21-.001-.311.092-.426.226-.281.452-.576.522-.715.07-.14.035-.262-.018-.366-.052-.105-.47-1.133-.644-1.552-.17-.407-.341-.352-.47-.358a8.347 8.347 0 00-.4-.007.767.767 0 00-.557.261c-.192.21-.732.715-.732 1.743s.75 2.022.854 2.161c.104.14 1.473 2.25 3.569 3.155.498.216.887.344 1.19.44.502.16.957.137 1.317.083.401-.06 1.236-.505 1.41-.993.174-.488.174-.907.122-.994-.052-.087-.191-.14-.4-.244z" fill="#fff"/></svg>