<svg width="13" height="11" fill="none" xmlns="http://www.w3.org/2000/svg"><path d="M11.664 2.853A5.321 5.321 0 0013 1.469a5.566 5.566 0 01-1.536.42c.553-.33.975-.847 1.173-1.472a5.332 5.332 0 01-1.69.645 2.664 2.664 0 00-4.61 1.822c0 .212.018.415.062.608A7.545 7.545 0 01.905.704a2.668 2.668 0 00.819 3.562A2.634 2.634 0 01.52 3.938v.03c0 1.294.924 2.37 2.135 2.618a2.65 2.65 0 01-.698.088c-.171 0-.343-.01-.505-.046a2.691 2.691 0 002.49 1.857A5.357 5.357 0 01.638 9.622 5.04 5.04 0 010 9.585a7.505 7.505 0 004.088 1.196c4.704 0 7.77-3.924 7.576-7.928z" fill="#fff"/></svg>