<svg width="21" height="21" fill="none" xmlns="http://www.w3.org/2000/svg"><path d="M15.197 12.797a4.74 4.74 0 01-1.77 2.503c-.865.633-1.84.95-2.927.95a4.828 4.828 0 01-2.927-.95 4.74 4.74 0 01-1.77-2.503.79.79 0 01.05-.622.783.783 0 01.488-.404.79.79 0 01.623.051.782.782 0 01.404.488c.214.684.61 1.238 1.187 1.662a3.208 3.208 0 001.945.635c.719 0 1.367-.212 1.944-.635a3.19 3.19 0 001.187-1.662.78.78 0 01.411-.488.807.807 0 01.629-.051.781.781 0 01.475.404.79.79 0 01.051.622zm-6.34-5.583c0 .454-.16.84-.481 1.162-.321.32-.708.481-1.162.481-.453 0-.84-.16-1.162-.481a1.583 1.583 0 01-.48-1.162c0-.453.16-.84.48-1.161a1.585 1.585 0 011.162-.482c.454 0 .84.16 1.162.482.32.32.48.708.48 1.161zm6.571 0c0 .454-.16.84-.481 1.162-.32.32-.708.481-1.162.481-.453 0-.84-.16-1.161-.481a1.583 1.583 0 01-.481-1.162c0-.453.16-.84.48-1.161a1.587 1.587 0 011.162-.482c.454 0 .841.16 1.162.482.32.32.481.708.481 1.161zm3.286 3.286a7.984 7.984 0 00-.655-3.19 8.295 8.295 0 00-1.752-2.618A8.296 8.296 0 0013.69 2.94a7.985 7.985 0 00-3.19-.654 7.985 7.985 0 00-3.189.654 8.295 8.295 0 00-2.618 1.752A8.295 8.295 0 002.94 7.311a7.985 7.985 0 00-.655 3.189 8 8 0 00.655 3.19 8.295 8.295 0 001.752 2.618A8.295 8.295 0 007.31 18.06a7.984 7.984 0 003.19.654 7.985 7.985 0 003.19-.654 8.296 8.296 0 002.618-1.752 8.295 8.295 0 001.751-2.619 7.984 7.984 0 00.655-3.189zm1.643 0c0 1.788-.44 3.438-1.322 4.948a9.812 9.812 0 01-3.588 3.587c-1.51.881-3.159 1.322-4.947 1.322-1.789 0-3.438-.44-4.948-1.322a9.813 9.813 0 01-3.587-3.587C1.083 13.938.643 12.288.643 10.5c0-1.788.44-3.438 1.322-4.948a9.813 9.813 0 013.587-3.587C7.062 1.083 8.712.643 10.5.643c1.788 0 3.437.44 4.947 1.322a9.812 9.812 0 013.588 3.587c.881 1.51 1.322 3.16 1.322 4.948z" fill="#B0B0B1"/></svg>