<svg width="21" height="19" fill="none" xmlns="http://www.w3.org/2000/svg"><path d="M18.858 5.78c0-.19-.007-.374-.016-.556A8.594 8.594 0 0021 2.989a8.991 8.991 0 01-2.48.68 4.282 4.282 0 001.894-2.38 8.614 8.614 0 01-2.73 1.042 4.304 4.304 0 00-7.447 2.943c0 .342.028.67.1.982-3.58-.175-6.747-1.89-8.875-4.503a4.342 4.342 0 00-.59 2.176 4.31 4.31 0 001.913 3.578 4.255 4.255 0 01-1.945-.53v.047a4.325 4.325 0 003.45 4.23c-.659.18-1.469.174-1.944.069.557 1.704 2.141 2.958 4.022 3a8.654 8.654 0 01-5.338 1.835c-.353 0-.691-.016-1.03-.059a12.124 12.124 0 006.604 1.932c7.923 0 12.254-6.562 12.254-12.25z" fill="#fff"/></svg>