<svg width="15" height="15" fill="none" xmlns="http://www.w3.org/2000/svg"><path d="M14.962 12.853a.586.586 0 00-1.147.239.612.612 0 01-.124.513.595.595 0 01-.47.223H1.779a.595.595 0 01-.469-.223.612.612 0 01-.124-.513c.608-2.92 3.185-5.054 6.16-5.126a4.025 4.025 0 00.31 0 6.446 6.446 0 015.207 2.86.586.586 0 00.973-.652 7.621 7.621 0 00-3.95-3 3.981 3.981 0 001.6-3.19A3.989 3.989 0 007.5 0a3.989 3.989 0 00-3.984 3.984c0 1.304.63 2.464 1.6 3.191a7.614 7.614 0 00-5.078 5.678A1.78 1.78 0 001.778 15h11.444a1.78 1.78 0 001.74-2.147zM4.688 3.984A2.816 2.816 0 017.5 1.172a2.816 2.816 0 012.813 2.812 2.816 2.816 0 01-2.67 2.81 7.665 7.665 0 00-.285 0 2.816 2.816 0 01-2.67-2.81z" fill="#6B6F87"/></svg>