<svg width="18" height="18" fill="none" xmlns="http://www.w3.org/2000/svg"><g clip-path="url(#clip0)"><path d="M17.954 15.424a.703.703 0 00-1.376.286.735.735 0 01-.15.616.715.715 0 01-.562.268H2.134a.715.715 0 01-.563-.268.735.735 0 01-.149-.616c.73-3.505 3.822-6.065 7.392-6.151a4.806 4.806 0 00.373 0 7.735 7.735 0 016.247 3.433.703.703 0 101.168-.783 9.146 9.146 0 00-4.74-3.6 4.777 4.777 0 001.92-3.828A4.787 4.787 0 009 0a4.787 4.787 0 00-4.781 4.781c0 1.565.755 2.956 1.92 3.83a9.136 9.136 0 00-2.946 1.619 9.173 9.173 0 00-3.147 5.194A2.135 2.135 0 002.134 18h13.732a2.135 2.135 0 002.088-2.576zM5.625 4.78A3.379 3.379 0 019 1.406a3.379 3.379 0 013.375 3.375 3.38 3.38 0 01-3.204 3.371 9.251 9.251 0 00-.341 0 3.38 3.38 0 01-3.205-3.37z" fill="#000"/></g><defs><clipPath id="clip0"><path fill="#fff" d="M0 0h18v18H0z"/></clipPath></defs></svg>