<svg width="17" height="16" fill="none" xmlns="http://www.w3.org/2000/svg"><path d="M9.88.056a.565.565 0 00-.6.068l-5.513 4.41H1.133C.51 4.534 0 5.043 0 5.667v4.534c0 .624.509 1.133 1.133 1.133h2.634l5.512 4.41a.572.572 0 00.6.068.569.569 0 00.321-.511V.567a.569.569 0 00-.32-.51zM3.4 10.201H1.133V5.667H3.4v4.534zm5.667 3.92l-4.534-3.627v-5.12l4.534-3.627v12.374zm4.004-10.194a.566.566 0 10-.797.805 4.467 4.467 0 011.328 3.202 4.467 4.467 0 01-1.328 3.202.565.565 0 10.797.804 5.584 5.584 0 001.664-4.006c0-1.524-.59-2.947-1.664-4.007z" fill="#000"/><path d="M14.668 2.33a.567.567 0 00-.797.804 6.713 6.713 0 011.996 4.8 6.716 6.716 0 01-1.996 4.8.567.567 0 00.797.804 7.836 7.836 0 002.333-5.604 7.836 7.836 0 00-2.333-5.604z" fill="#000"/></svg>