<svg width="23" height="23" fill="none" xmlns="http://www.w3.org/2000/svg"><g clip-path="url(#clip0)" fill="#84889C"><path d="M8.299 4.276a.674.674 0 00.674-.674V2.245a.674.674 0 00-1.348 0v1.357c0 .372.302.674.674.674zM2.186 6.743l-1.175-.679a.674.674 0 10-.674 1.167l1.175.679a.674.674 0 10.674-1.167zM1.512 14.19l-1.175.678a.674.674 0 10.674 1.167l1.175-.678a.674.674 0 00-.674-1.167zM15.085 7.91l1.175-.679a.674.674 0 00-.674-1.167l-1.175.679a.674.674 0 00.674 1.167zM17.92 12.006a5.065 5.065 0 00-4.701-3.157 5.398 5.398 0 00-4.92-3.19 5.397 5.397 0 00-5.39 5.39 5.39 5.39 0 002.493 4.545c-1.597 2.524.22 5.833 3.208 5.833 10.602-.011 10.022.027 10.207-.03a4.717 4.717 0 00-.898-9.39zM4.255 11.05a4.048 4.048 0 014.043-4.043c1.503 0 2.817.825 3.513 2.046a5.054 5.054 0 00-3.631 4.798c-.67.073-1.3.324-1.844.732a4.046 4.046 0 01-2.081-3.533zm14.306 9.018c-.24.02-6.355.008-9.952.011-2.222 0-3.304-2.754-1.651-4.264a2.425 2.425 0 011.877-.628.674.674 0 00.728-.765 3.708 3.708 0 013.67-4.226 3.712 3.712 0 013.576 2.732.674.674 0 00.787.483 3.37 3.37 0 014.055 3.299 3.386 3.386 0 01-3.09 3.358z"/></g><defs><clipPath id="clip0"><path fill="#fff" d="M0 0h23v23H0z"/></clipPath></defs></svg>