<svg width="86" height="28" fill="none" xmlns="http://www.w3.org/2000/svg"><path fill="#E53935" d="M0 0h86v28H0z"/><path d="M37.12 18h1.404v-3.324l3.096-4.68h-1.608l-2.184 3.432-2.208-3.432h-1.608l3.108 4.68V18zm6.213.144c1.86 0 2.988-1.38 2.988-3.048 0-1.656-1.128-3.036-2.988-3.036-1.836 0-2.976 1.38-2.976 3.036 0 1.668 1.14 3.048 2.976 3.048zm0-1.116c-1.068 0-1.668-.9-1.668-1.932 0-1.02.6-1.92 1.668-1.92 1.08 0 1.68.9 1.68 1.92 0 1.032-.6 1.932-1.68 1.932zm7.934.972h1.26v-5.796h-1.26v4.068c-.3.396-.852.756-1.488.756-.708 0-1.164-.276-1.164-1.176v-3.648h-1.26v4.104c0 1.188.613 1.836 1.86 1.836.912 0 1.632-.444 2.052-.912V18zm3.699 0h1.404v-6.768h2.424V9.996h-6.252v1.236h2.424V18zm7.751 0h1.26v-5.796h-1.26v4.068c-.3.396-.852.756-1.488.756-.708 0-1.164-.276-1.164-1.176v-3.648h-1.26v4.104c0 1.188.612 1.836 1.86 1.836.912 0 1.632-.444 2.052-.912V18zm2.657 0h1.26v-.792c.444.576 1.104.936 1.86.936 1.476 0 2.568-1.128 2.568-3.036 0-1.872-1.08-3.048-2.568-3.048-.732 0-1.404.336-1.86.948V9.996h-1.26V18zm1.26-1.74v-2.292c.276-.432.9-.792 1.488-.792 1.008 0 1.644.804 1.644 1.932s-.636 1.92-1.644 1.92c-.588 0-1.212-.336-1.488-.768zm5.112-1.164c0 1.836 1.297 3.048 3.037 3.048.924 0 1.775-.288 2.352-.84l-.577-.828c-.408.408-1.08.636-1.644.636-1.091 0-1.752-.72-1.847-1.596h4.476v-.3c0-1.824-1.117-3.156-2.857-3.156-1.716 0-2.94 1.356-2.94 3.036zm2.94-2.004c1.14 0 1.608.852 1.632 1.536h-3.263c.06-.708.551-1.536 1.631-1.536z" fill="#fff"/><g clip-path="url(#clip0)"><path d="M8.434 18.895c.409 1.448 1.658 1.713 1.741 1.764 2.056.56 13.58.562 15.666 0 1.429-.413 1.691-1.68 1.74-1.764.545-2.895.58-6.67-.024-9.954l.025.163c-.409-1.448-1.658-1.713-1.741-1.764-2.029-.55-13.582-.572-15.666 0-1.43.414-1.692 1.68-1.74 1.764-.583 3.043-.612 6.533 0 9.79zm7.572-1.853v-6.077l5.221 3.043-5.221 3.034z" fill="#fff"/></g><defs><clipPath id="clip0"><path fill="#fff" transform="translate(8 4)" d="M0 0h20v20H0z"/></clipPath></defs></svg>