<svg width="21" height="21" fill="none" xmlns="http://www.w3.org/2000/svg"><g clip-path="url(#clip0)"><path d="M.457 15.64c.428 1.52 1.74 1.799 1.827 1.852 2.16.588 14.259.59 16.45 0 1.5-.434 1.776-1.765 1.827-1.852.572-3.04.61-7.003-.026-10.452l.026.171c-.428-1.52-1.74-1.799-1.827-1.852-2.13-.578-14.261-.6-16.45 0C.784 3.942.508 5.272.457 5.359c-.612 3.195-.643 6.86 0 10.28zm7.95-1.945V7.313l5.483 3.196-5.483 3.186z" fill="#E53935"/></g><defs><clipPath id="clip0"><path fill="#fff" d="M0 0h21v21H0z"/></clipPath></defs></svg>