<?xml version="1.0" standalone="no"?>
<!DOCTYPE svg PUBLIC "-//W3C//DTD SVG 1.1//EN" "http://www.w3.org/Graphics/SVG/1.1/DTD/svg11.dtd" >
<svg xmlns="http://www.w3.org/2000/svg">
<metadata>Generated by IcoMoon</metadata>
<defs>
<font id="icons-font" horiz-adv-x="1024">
<font-face units-per-em="1024" ascent="960" descent="-64" />
<missing-glyph horiz-adv-x="1024" />
<glyph unicode="&#x20;" horiz-adv-x="512" d="" />
<glyph unicode="&#xe900;" glyph-name="whatsapp-icon" d="M851.598 788.988c-89.814 89.918-209.257 139.459-336.504 139.512-262.209 0-475.607-213.393-475.713-475.669-0.035-83.843 21.867-165.688 63.498-237.826l-67.488-246.504 252.182 66.15c69.486-37.901 147.715-57.878 227.325-57.901h0.2c262.175 0 475.599 213.411 475.697 475.697 0.053 127.115-49.379 246.629-139.197 336.541zM515.094 57.090h-0.165c-70.946 0.027-140.527 19.095-201.241 55.109l-14.432 8.575-149.648-39.259 39.943 145.907-9.404 14.959c-39.58 62.949-60.48 135.711-60.445 210.419 0.082 217.999 177.457 395.357 395.548 395.357 105.61-0.035 204.885-41.215 279.534-115.951s115.734-174.076 115.699-279.726c-0.093-218.014-177.455-395.389-395.389-395.389zM731.973 353.213c-11.883 5.957-70.327 34.7-81.225 38.672-10.886 3.967-18.819 5.944-26.735-5.953-7.929-11.892-30.702-38.672-37.639-46.596-6.941-7.934-13.864-8.931-25.756-2.979-11.887 5.948-50.185 18.503-95.588 59-35.332 31.517-59.185 70.438-66.123 82.334-6.926 11.905-0.058 17.72 5.215 24.26 12.867 15.976 25.752 32.728 29.713 40.656 3.967 7.934 1.981 14.877-0.996 20.824-2.965 5.948-26.736 64.453-36.639 88.26-9.656 23.168-19.447 20.039-26.748 20.403-6.926 0.345-14.853 0.416-22.781 0.416-7.922 0-20.801-2.97-31.699-14.877-10.893-11.9-41.596-40.652-41.596-99.158s42.592-115.025 48.533-122.959c5.941-7.934 83.818-127.991 203.052-179.472 28.36-12.261 50.497-19.567 67.762-25.043 28.476-9.047 54.383-7.769 74.868-4.71 22.84 3.415 70.318 28.757 80.233 56.516 9.902 27.768 9.902 51.565 6.923 56.529-2.965 4.955-10.89 7.925-22.773 13.877z" />
<glyph unicode="&#xe901;" glyph-name="washing-machine-icon" horiz-adv-x="811" d="M0 957.146v-988.416h791.509v988.416h-791.509zM733.611 899.247v-173.781h-57.941v115.84h-231.68v-115.84h-386.091v173.781h675.712zM617.771 725.466h-115.84v57.941h115.84v-57.941zM57.899 26.628v640.939h675.712v-640.939h-675.712zM231.667 841.312h57.899v-57.899h-57.899v57.899zM173.775 812.342c0-5.732-1.7-11.334-4.885-16.099s-7.712-8.478-13.008-10.67c-5.296-2.191-11.124-2.763-16.745-1.641s-10.783 3.885-14.833 7.941c-4.050 4.056-6.806 9.222-7.919 14.845s-0.533 11.449 1.666 16.742c2.199 5.293 5.919 9.815 10.689 12.993s10.375 4.87 16.107 4.861c7.676-0.011 15.034-3.069 20.457-8.5s8.47-12.794 8.47-20.47zM395.799 586.5c-49.636 0-98.158-14.719-139.429-42.295-41.271-27.575-73.438-66.773-92.433-112.631s-23.965-96.316-14.281-144.998c9.683-48.683 33.585-93.402 68.684-128.499s79.816-58.999 128.499-68.685c48.682-9.685 99.144-4.715 145.002 14.281s85.052 51.162 112.627 92.433c27.58 41.271 42.295 89.792 42.295 139.43-0.077 66.534-26.543 130.325-73.591 177.374-47.049 47.046-110.835 73.512-177.372 73.591zM395.799 528.602c47.589-0.043 93.485-17.63 128.911-49.404s57.89-75.499 63.087-122.799c-59.409-20.446-124.318-17.933-181.972 7.040-62.981 26.308-132.976 30.682-198.741 12.416 9.279 43.187 33.063 81.894 67.397 109.683s77.147 42.987 121.318 43.063zM395.799 142.511c-47.62 0.047-93.548 17.668-128.978 49.485s-57.872 75.588-63.022 122.931c59.59 21.154 124.984 18.927 182.997-6.229 37.11-14.805 76.577-22.827 116.521-23.68 27.452 0.23 54.775 3.797 81.365 10.624-9.199-43.294-32.973-82.121-67.349-109.999-34.377-27.874-77.274-43.115-121.534-43.174v0.043z" />
<glyph unicode="&#xe902;" glyph-name="twitter-icon" horiz-adv-x="1260" d="M1131.756 671.232c0 11.396-0.417 22.475-0.945 33.398 51.255 36.391 94.366 81.815 129.497 134.118v0.052c-46.891-20.532-96.784-34.186-148.874-40.802 53.563 31.98 94.468 82.235 113.688 142.783-49.94-29.775-105.078-50.78-163.84-62.543-47.419 50.517-115.003 81.762-188.731 81.762-143.043 0-258.203-116.106-258.203-258.416 0-20.48 1.733-40.172 5.986-58.919-214.777 10.503-404.874 113.428-532.585 270.284-22.265-38.702-35.394-82.971-35.394-130.599 0-89.482 46.053-168.776 114.793-214.725-41.537 0.788-82.235 12.865-116.736 31.823v-2.836c0-125.558 89.535-229.849 207.006-253.9-39.489-10.817-88.117-10.398-116.631-4.096 33.451-102.294 128.499-177.548 241.402-180.014-87.906-68.742-199.548-110.175-320.381-110.175-21.163 0-41.485 0.945-61.808 3.521 114.478-73.783 250.066-115.948 396.367-115.948 475.451 0 735.39 393.846 735.39 735.232z" />
<glyph unicode="&#xe903;" glyph-name="tools-icon" horiz-adv-x="979" d="M656.678-29.887c-4.038 0-8.005 1.077-11.487 3.117l-215.353 125.729c-5.11 2.987-8.862 7.84-10.465 13.535-1.603 5.699-0.932 11.794 1.872 17.007l27.070 50.31c1.429 2.662 3.375 5.013 5.721 6.919 2.346 1.901 5.049 3.321 7.947 4.176 2.898 0.85 5.935 1.122 8.94 0.792s5.912-1.256 8.557-2.716l26.223-14.425 135.524 231.112-197.588 95.811c-23.14 11.197-43.723 27.042-60.464 46.549s-29.28 42.257-36.834 66.828c-7.554 24.571-9.96 50.436-7.069 75.979s11.017 50.215 23.872 72.476c0.223 0.445 0.534 0.89 0.801 1.291 24.169 41.237 63.212 71.654 109.11 85.001 45.893 13.348 95.161 8.613 137.675-13.232l247.274-126.976c22.341-11.443 42.149-27.266 58.243-46.527s28.147-41.565 35.439-65.583c7.288-24.018 9.67-49.258 6.999-74.216-2.671-24.956-10.338-49.123-22.546-71.054l-259.473-469.971c-1.972-3.575-4.871-6.554-8.383-8.628-3.517-2.075-7.524-3.17-11.607-3.17v-0.134zM471.868 127.274l176.128-102.845 248.253 449.67c9.225 16.584 15.017 34.856 17.034 53.727 2.021 18.87 0.223 37.953-5.285 56.114s-14.616 35.028-26.775 49.598c-12.159 14.57-27.127 26.544-44.010 35.211l-247.363 127.021c-19.941 10.306-42.069 15.666-64.512 15.627-24.865-0.024-49.286-6.581-70.821-19.012s-39.426-30.302-51.882-51.822l-0.801-1.291c-9.452-16.835-15.361-35.426-17.363-54.629s-0.056-38.613 5.719-57.035c5.775-18.423 15.258-35.47 27.864-50.094s28.071-26.513 45.443-34.939l219.804-106.585c2.832-1.367 5.352-3.308 7.4-5.699 2.048-2.395 3.58-5.182 4.492-8.192 0.917-3.014 1.202-6.18 0.833-9.309-0.37-3.125-1.385-6.14-2.974-8.855l-159.254-271.583c-3.001-5.129-7.889-8.887-13.619-10.467s-11.852-0.859-17.056 2.008l-25.511 14.024-5.743-10.641zM343.734 674.668c-3.694-0.004-7.332 0.898-10.596 2.627-10.697 5.639-20.178 13.33-27.902 22.633s-13.541 20.037-17.117 31.588c-3.576 11.551-4.842 23.694-3.726 35.734s4.594 23.743 10.233 34.439c5.639 10.696 13.33 20.178 22.633 27.902s20.037 13.54 31.588 17.117c11.551 3.576 23.693 4.842 35.734 3.726s23.743-4.594 34.439-10.233c5.116-2.952 8.889-7.77 10.528-13.444s1.016-11.762-1.737-16.987c-2.753-5.225-7.424-9.18-13.031-11.035s-11.715-1.466-17.041 1.085c-10.855 5.522-23.447 6.55-35.054 2.861s-21.295-11.798-26.97-22.574c-5.675-10.776-6.88-23.353-3.355-35.011s11.498-21.459 22.193-27.285c4.532-2.363 8.138-6.18 10.24-10.838s2.577-9.888 1.35-14.849c-1.227-4.961-4.087-9.366-8.118-12.507s-9.002-4.836-14.113-4.813l-0.178-0.134zM283.713 717.929c-3.633 0.031-7.205 0.932-10.418 2.627-9.326 4.911-17.592 11.611-24.328 19.717s-11.81 17.46-14.931 27.526c-6.304 20.331-4.273 42.333 5.646 61.167s26.913 32.955 47.243 39.259c20.331 6.304 42.333 4.273 61.167-5.645 5.116-2.952 8.889-7.77 10.528-13.444s1.016-11.763-1.737-16.987c-2.754-5.225-7.424-9.18-13.031-11.035s-11.715-1.466-17.041 1.085c-8.124 4.275-17.613 5.147-26.38 2.425s-16.094-8.815-20.368-16.939c-4.275-8.124-5.147-17.613-2.425-26.38s8.815-16.093 16.939-20.368c4.495-2.389 8.063-6.21 10.138-10.858s2.538-9.855 1.316-14.796c-1.223-4.941-4.060-9.332-8.063-12.476s-8.941-4.861-14.031-4.878h-0.223zM259.587 795.54c-3.454-0.016-6.866 0.761-9.973 2.271l-179.245 87.441c-5.386 2.691-9.491 7.4-11.423 13.102s-1.534 11.936 1.107 17.347c2.641 5.41 7.31 9.559 12.995 11.545s11.921 1.646 17.356-0.944l179.2-87.441c4.615-2.278 8.326-6.049 10.53-10.7s2.772-9.911 1.613-14.925c-1.16-5.015-3.979-9.491-8.001-12.702s-9.012-4.97-14.158-4.991zM586.828 260.256c-3.063 0.004-6.091 0.623-8.904 1.825-95.722 40.737-146.389 88.331-150.619 141.535 1.069 22.742 7.72 44.878 19.369 64.445 11.647 19.563 27.928 35.965 47.416 47.748 5.107 2.938 11.157 3.786 16.878 2.367s10.672-4.996 13.82-9.983c3.143-4.982 4.243-10.992 3.059-16.767s-4.555-10.868-9.403-14.216c-13.357-8.637-48.083-38.066-45.412-70.077 2.805-33.881 46.481-70.478 122.969-103.023 4.84-2.061 8.82-5.73 11.268-10.387s3.214-10.017 2.164-15.173c-1.046-5.156-3.842-9.795-7.912-13.125-4.069-3.335-9.167-5.16-14.425-5.169h-0.267zM699.69 650.576c-3.811 0.012-7.56 0.976-10.908 2.805l-156.405 85.882c-5.311 2.917-9.247 7.824-10.943 13.644s-1.011 12.074 1.906 17.388c2.916 5.314 7.827 9.251 13.646 10.946s12.074 1.009 17.386-1.908l156.36-85.882c4.43-2.447 7.92-6.297 9.924-10.943 2.008-4.646 2.413-9.827 1.153-14.728s-4.109-9.246-8.103-12.352c-3.998-3.106-8.909-4.797-13.971-4.808l-0.045-0.045zM650.476 581.249c-3.833 0.018-7.6 0.998-10.952 2.849l-156.36 85.882c-2.631 1.444-4.955 3.392-6.83 5.733-1.879 2.341-3.277 5.029-4.118 7.911-0.837 2.881-1.104 5.9-0.775 8.883s1.238 5.873 2.685 8.504c1.443 2.631 3.393 4.952 5.73 6.83 2.342 1.878 5.031 3.277 7.912 4.116s5.899 1.103 8.887 0.776c2.983-0.328 5.872-1.239 8.504-2.683l156.36-85.882c4.425-2.448 7.92-6.297 9.924-10.943s2.409-9.827 1.149-14.728c-1.256-4.901-4.109-9.246-8.103-12.352s-8.909-4.797-13.966-4.808l-0.045-0.089zM598.301 512.031c-3.833 0.009-7.6 0.988-10.952 2.849l-156.361 85.882c-2.631 1.444-4.952 3.393-6.83 5.734s-3.277 5.029-4.116 7.911c-0.839 2.881-1.103 5.9-0.775 8.883s1.239 5.873 2.683 8.504c1.444 2.631 3.392 4.952 5.733 6.83s5.029 3.276 7.911 4.116c2.881 0.839 5.9 1.103 8.883 0.776s5.873-1.239 8.505-2.683l156.36-85.882c4.43-2.447 7.92-6.296 9.924-10.943s2.409-9.827 1.149-14.728c-1.256-4.901-4.105-9.246-8.103-12.352-3.994-3.107-8.904-4.799-13.966-4.808l-0.045-0.089zM436.686-24.291c-61.949 2.079-123.4 11.843-182.94 29.073-184.365 48.484-208.495 23.819-208.718 23.597 1.004-2.382 2.179-4.688 3.517-6.901 2.971-4.902 3.99-10.743 2.855-16.362s-4.343-10.605-8.985-13.971c-4.642-3.361-10.38-4.857-16.073-4.185-5.694 0.668-10.927 3.455-14.66 7.805-6.61 8.366-10.566 18.517-11.36 29.148s1.612 21.259 6.907 30.511c16.874 24.71 61.395 46.481 257.959-5.254 180.001-47.371 232.671-22.261 247.007-9.528 2.467 1.941 4.492 4.376 5.953 7.155 1.456 2.778 2.311 5.832 2.507 8.962-0.601 3.023-0.583 6.135 0.053 9.149 0.632 3.014 1.87 5.868 3.637 8.392s4.025 4.661 6.638 6.291c2.613 1.629 5.53 2.711 8.575 3.183s6.153 0.321 9.136-0.436c2.987-0.761 5.788-2.119 8.232-3.989 2.449-1.87 4.492-4.216 6.010-6.896 1.514-2.68 2.475-5.641 2.818-8.704 1.091-10.65-0.432-21.406-4.434-31.334-4.003-9.933-10.365-18.735-18.539-25.653-30.555-22.546-68.256-33.227-106.096-30.052z" />
<glyph unicode="&#xe904;" glyph-name="star-yellow" horiz-adv-x="1103" d="M560.505 943.213l136.192-322.245 348.555-29.932c5.38-0.451 10.516-2.48 14.753-5.83s7.396-7.877 9.074-13.012c1.678-5.135 1.812-10.651 0.378-15.859-1.441-5.209-4.38-9.878-8.452-13.426l-264.507-229.14 79.242-340.755c1.245-5.262 0.898-10.776-0.985-15.848s-5.222-9.468-9.602-12.642c-4.38-3.174-9.602-4.986-15.006-5.199s-10.752 1.174-15.368 3.994l-299.324 180.618-299.323-180.618c-4.621-2.781-9.958-4.135-15.346-3.907-5.387 0.236-10.587 2.048-14.953 5.215-4.366 3.159-7.704 7.538-9.6 12.587s-2.265 10.547-1.062 15.801l78.848 340.755-264.428 229.14c-4.075 3.548-7.014 8.217-8.45 13.426s-1.306 10.724 0.375 15.859c1.681 5.135 4.837 9.66 9.076 13.012s9.37 5.379 14.754 5.83l348.554 29.932 136.034 322.245c2.087 4.984 5.6 9.241 10.099 12.234s9.782 4.591 15.186 4.591c5.404 0 10.687-1.597 15.186-4.591s8.012-7.25 10.099-12.234z" />
<glyph unicode="&#xe905;" glyph-name="photo-icon" horiz-adv-x="1178" d="M1159.885 675.436c-97.091 46.179-200.084 78.759-306.074 96.819l-7.219 30.72c-9.001 39.189-31.058 74.153-62.551 99.152s-70.554 38.548-110.761 38.422h-168.96c-40.202 0.098-79.245-13.461-110.733-38.456s-53.552-59.943-62.579-99.119l-7.219-30.72c-106.143-17.893-209.277-50.479-306.432-96.819-5.232-2.757-9.613-6.888-12.671-11.949s-4.678-10.861-4.686-16.774v-384c0.081-73.979 29.506-144.911 81.819-197.222s123.24-81.736 197.221-81.818c8.643 0 16.932 3.436 23.044 9.544 6.112 6.113 9.545 14.403 9.545 23.045s-3.433 16.932-9.545 23.045c-6.111 6.108-14.401 9.544-23.044 9.544-56.699 0.067-111.056 22.62-151.149 62.715-40.093 40.090-62.646 94.449-62.714 151.148v363.52c93.008 40.572 190.721 69.364 290.867 85.709 6.278 1.104 12.093 4.026 16.726 8.403s7.878 10.019 9.335 16.224l12.134 51.814c5.783 24.78 19.787 46.872 39.729 62.678s44.649 24.392 70.095 24.362h168.96c25.462 0.085 50.196-8.481 70.149-24.295s33.94-37.938 39.675-62.745l12.083-51.917c1.418-6.223 4.654-11.885 9.293-16.268s10.476-7.293 16.768-8.359c100.122-16.464 197.816-45.252 290.867-85.709v-363.52c-0.067-56.699-22.62-111.058-62.715-151.148-40.090-40.095-94.449-62.648-151.148-62.715-8.643 0-16.932-3.436-23.045-9.544-6.108-6.113-9.544-14.403-9.544-23.045s3.436-16.932 9.544-23.045c6.113-6.108 14.403-9.544 23.045-9.544 73.979 0.082 144.906 29.507 197.222 81.818 52.311 52.311 81.736 123.244 81.818 197.222v384c0.082 5.92-1.475 11.747-4.506 16.836-3.026 5.088-7.404 9.238-12.646 11.99zM106.719 742.040c3.486-0.040 6.952 0.532 10.24 1.69 34.253 11.366 70.246 21.504 106.957 30.157 8.099 2.249 15.012 7.547 19.289 14.782s5.586 15.846 3.652 24.026c-1.934 8.179-6.961 15.292-14.025 19.846s-15.618 6.194-23.866 4.578c-38.4-9.165-76.288-19.814-112.64-31.641-8.165-2.704-14.929-8.53-18.814-16.204s-4.576-16.574-1.922-24.756c2.231-6.503 6.423-12.155 11.997-16.18s12.258-6.224 19.133-6.297zM588.6 715.475c-74.22 0.030-146.781-21.949-208.508-63.159s-109.847-99.798-138.275-168.356c-28.428-68.559-35.887-144.008-21.433-216.804 14.453-72.801 50.169-139.674 102.632-192.174s119.315-88.259 192.102-102.764c72.791-14.5 148.244-7.096 216.822 21.289 68.577 28.38 127.196 76.457 168.448 138.158 41.252 61.696 63.283 134.241 63.304 208.461-0.041 99.492-39.567 194.902-109.891 265.276-70.328 70.375-165.709 109.963-265.201 110.072zM588.6 30.162c-61.327-0.020-121.282 18.145-172.283 52.198s-90.759 82.468-114.246 139.116c-23.487 56.653-29.648 118.994-17.704 179.144 11.944 60.153 41.457 115.411 84.806 158.789s98.588 72.927 158.73 84.911c60.145 11.984 122.491 5.864 179.159-17.585 56.663-23.45 105.103-63.176 139.187-114.155 34.089-50.979 52.296-110.921 52.316-172.248-0.031-82.217-32.686-161.065-90.808-219.218-58.117-58.158-136.94-90.87-219.156-90.952z" />
<glyph unicode="&#xe906;" glyph-name="phone-call-icon" d="M750.374 290.221c-8.922 8.947-19.514 16.051-31.187 20.896-11.667 4.845-24.179 7.341-36.813 7.341s-25.146-2.496-36.813-7.341c-11.671-4.845-22.269-11.949-31.188-20.896l-46.4-46.4c-52.243 33.158-100.646 72.006-144.32 115.839-43.74 43.757-82.582 92.15-115.84 144.32l46.4 46.4c8.95 8.919 16.051 19.517 20.897 31.186s7.34 24.179 7.34 36.814c0 12.635-2.495 25.146-7.34 36.815s-11.947 22.267-20.897 31.185l-90.56 90.24c-8.792 8.98-19.301 16.1-30.9 20.937s-24.052 7.294-36.62 7.223c-12.657 0.031-25.194-2.441-36.892-7.274s-22.324-11.931-31.268-20.886l-43.52-43.2c-20.743-22.303-36.225-48.971-45.307-78.044s-11.533-59.812-7.173-89.956c10.24-120 88.96-264.319 210.24-385.919s267.2-200 387.2-211.52c8.954-0.48 17.927-0.48 26.881 0 25.83-1.088 51.616 2.995 75.853 12.006 24.23 9.018 46.419 22.771 65.267 40.474l43.2 43.52c8.954 8.941 16.051 19.571 20.883 31.264 4.838 11.699 7.309 24.237 7.277 36.896 0.070 12.563-2.387 25.018-7.226 36.621-4.838 11.597-11.955 22.106-20.934 30.899l-90.24 90.56zM795.494 109.101l-43.52-43.2c-16.090-13.414-34.874-23.206-55.085-28.73-20.205-5.523-41.363-6.637-62.036-3.27-104 8.96-236.48 82.56-345.92 192s-183.040 240.959-192.96 344.959c-3.451 20.675-2.377 41.852 3.148 62.072s15.368 39.001 28.852 55.048l45.12 43.52c2.99 2.966 6.536 5.313 10.435 6.905s8.074 2.399 12.285 2.375c4.212 0.024 8.387-0.783 12.285-2.375s7.444-3.939 10.435-6.905l90.56-91.52c5.96-5.996 9.306-14.106 9.306-22.56s-3.345-16.564-9.306-22.56l-64-64c-5.008-4.983-8.226-11.484-9.152-18.488s0.492-14.118 4.032-20.232c38.317-65.23 84.888-125.245 138.56-178.559 53.315-53.67 113.33-100.243 178.56-138.56 6.114-3.539 13.228-4.96 20.232-4.032 7.004 0.922 13.505 4.141 18.488 9.152l64.001 64c5.997 5.958 14.106 9.306 22.56 9.306s16.563-3.347 22.56-9.306l90.56-90.56c2.963-2.989 5.312-6.534 6.906-10.438 1.594-3.898 2.4-8.070 2.374-12.282-0.198-8.173-3.52-15.962-9.28-21.76zM851.2 787.519c-44.474 44.641-97.338 80.037-155.558 104.147-58.216 24.111-120.63 36.459-183.642 36.332-8.487 0-16.627-3.371-22.627-9.373s-9.373-14.14-9.373-22.627c0-8.487 3.372-16.627 9.373-22.628s14.14-9.372 22.627-9.372c54.927 0.002 109.311-10.874 160.013-32s96.717-52.083 135.392-91.085c38.682-39.003 69.248-85.279 89.946-136.157s31.117-105.352 30.65-160.277c0-8.487 3.373-16.627 9.37-22.628 6.003-6.001 14.144-9.372 22.63-9.372s16.627 3.371 22.63 9.372c5.997 6.001 9.37 14.141 9.37 22.628 0.614 63.682-11.526 126.842-35.712 185.757-24.179 58.916-59.91 112.394-105.088 157.283zM669.107 604.47c18.163-18.051 32.531-39.551 42.259-63.237 9.722-23.686 14.618-49.078 14.381-74.683 0-8.487 3.373-16.626 9.376-22.627 5.997-6.001 14.138-9.373 22.624-9.373s16.627 3.372 22.63 9.373c6.003 6.001 9.37 14.14 9.37 22.627 0.429 33.887-5.882 67.521-18.56 98.95-12.672 31.429-31.462 60.029-55.277 84.141s-52.179 43.255-83.449 56.32c-31.27 13.065-64.822 19.791-98.712 19.788-8.487 0-16.626-3.371-22.627-9.372s-9.373-14.141-9.373-22.628c0-8.486 3.372-16.626 9.373-22.627s14.14-9.373 22.627-9.373c25.219-0.189 50.153-5.346 73.378-15.174s44.29-24.136 61.98-42.106z" />
<glyph unicode="&#xe907;" glyph-name="next-m-icon" horiz-adv-x="539" d="M8.421 932.507l19.055 19.055 503.562-503.563-503.562-503.562-19.055 19.055 484.507 484.506-484.507 484.508z" />
<glyph unicode="&#xe908;" glyph-name="prev-m-icon" horiz-adv-x="557" d="M539.508-36.506l-19.054-19.055-503.563 503.564 503.563 503.562 19.054-19.055-484.507-484.507 484.507-484.508z" />
<glyph unicode="&#xe909;" glyph-name="next-sm-icon" horiz-adv-x="658" d="M434.353 447.996l-400.067 400.067 77.58 77.58 477.647-477.647-477.647-477.648-77.58 77.583 400.067 400.065z" />
<glyph unicode="&#xe90a;" glyph-name="prev-sm-icon" horiz-adv-x="658" d="M223.933 448.004l400.067-400.067-77.58-77.583-477.647 477.649 477.647 477.647 77.58-77.579-400.067-400.067z" />
<glyph unicode="&#xe90b;" glyph-name="monitor-icon" horiz-adv-x="1178" d="M1045.146 952.175h-956.723c-23.443-0.027-45.918-9.352-62.494-25.928s-25.901-39.051-25.928-62.494v-669.080c0.027-23.444 9.352-45.921 25.928-62.495 16.577-16.579 39.051-25.902 62.494-25.928h444.979v-65.69h-116.992v-66.56h300.698v66.56h-116.941v65.741h444.979c23.444 0.026 45.916 9.349 62.495 25.928 16.573 16.573 25.902 39.050 25.928 62.495v669.029c-0.015 23.447-9.334 45.93-25.912 62.509s-39.066 25.9-62.51 25.913zM88.422 885.615h956.723c2.836 0 5.647-0.559 8.269-1.645s5.002-2.677 7.009-4.684c2.007-2.007 3.599-4.388 4.685-7.010s1.644-5.431 1.644-8.268v-532.478h-1000.192v532.478c0.027 2.842 0.614 5.65 1.727 8.265s2.733 4.984 4.764 6.972c2.031 1.988 4.434 3.556 7.071 4.614s5.458 1.585 8.3 1.551v0.205zM1045.146 173.066h-956.723c-2.859-0.036-5.696 0.497-8.347 1.567-2.651 1.075-5.063 2.657-7.097 4.669-2.033 2.007-3.648 4.403-4.75 7.040s-1.669 5.468-1.669 8.33v69.837h999.936v-69.837c0-5.688-2.243-11.146-6.236-15.191-3.999-4.045-9.426-6.349-15.114-6.415z" />
<glyph unicode="&#xe90c;" glyph-name="link-icon" d="M745.38 478.183c-4.076-3.936-7.327-8.644-9.564-13.849s-3.415-10.804-3.461-16.472c-0.051-5.663 1.029-11.279 3.174-16.522 2.145-5.248 5.315-10.010 9.318-14.013 4.009-4.009 8.771-7.178 14.013-9.324s10.865-3.226 16.527-3.174c5.668 0.051 11.264 1.229 16.471 3.461 5.207 2.237 9.912 5.489 13.85 9.564l65.879 65.876c42.138 43.117 65.577 101.109 65.234 161.398-0.348 60.288-24.448 118.009-67.082 160.639-42.629 42.631-100.352 66.734-160.64 67.079s-118.282-23.094-161.398-65.234l-65.876-65.878c-4.075-3.936-7.326-8.644-9.562-13.849s-3.414-10.804-3.463-16.47c-0.049-5.665 1.031-11.283 3.176-16.527s5.313-10.007 9.319-14.013c4.006-4.006 8.77-7.174 14.013-9.319s10.862-3.225 16.527-3.175c5.667 0.049 11.263 1.226 16.47 3.462s9.912 5.487 13.85 9.562l65.879 65.878c13.317 13.464 29.164 24.162 46.628 31.481s36.209 11.113 55.142 11.165c18.939 0.052 37.699-3.64 55.204-10.863s33.413-17.835 46.802-31.226c13.389-13.39 24.003-29.296 31.227-46.801s10.916-36.266 10.865-55.204c-0.056-18.937-3.85-37.677-11.167-55.143-7.322-17.466-18.017-33.313-31.483-46.63l-65.874-65.878zM278.646 417.818c4.075 3.937 7.325 8.643 9.562 13.85s3.413 10.803 3.462 16.471c0.049 5.665-1.030 11.283-3.175 16.527s-5.314 10.008-9.319 14.013c-4.006 4.006-8.77 7.174-14.014 9.32s-10.862 3.225-16.527 3.175c-5.665-0.049-11.264-1.226-16.47-3.462s-9.913-5.487-13.85-9.562l-65.877-65.876c-42.14-43.116-65.58-101.11-65.234-161.398s24.448-118.011 67.079-160.64c42.631-42.629 100.352-66.734 160.64-67.077 60.288-0.348 118.281 23.091 161.398 65.234l65.878 65.874c7.772 8.049 12.073 18.826 11.976 30.013s-4.582 21.888-12.498 29.798c-7.91 7.91-18.611 12.401-29.797 12.493-11.187 0.097-21.965-4.198-30.012-11.971l-65.877-65.879c-27-26.706-63.473-41.641-101.448-41.533-37.976 0.102-74.366 15.232-101.219 42.086s-41.985 63.242-42.089 101.222c-0.103 37.975 14.829 74.445 41.534 101.448l65.878 65.874zM350.099 285.87c8.001-7.997 18.851-12.493 30.165-12.493s22.164 4.495 30.166 12.493l263.72 263.724c4.076 3.936 7.327 8.644 9.564 13.85s3.415 10.804 3.461 16.47c0.051 5.665-1.029 11.283-3.174 16.527s-5.315 10.008-9.318 14.013c-4.009 4.006-8.771 7.175-14.013 9.32s-10.865 3.225-16.527 3.175c-5.668-0.049-11.264-1.226-16.471-3.462s-9.912-5.487-13.85-9.562l-263.722-263.511c-3.993-3.963-7.161-8.684-9.324-13.875-2.162-5.197-3.275-10.767-3.275-16.394s1.113-11.203 3.275-16.394c2.163-5.197 5.331-9.912 9.324-13.88z" />
<glyph unicode="&#xe90d;" glyph-name="home-icon" horiz-adv-x="1069" d="M883.583 465.194c-4.020 0.058-8.014-0.69-11.74-2.199-3.731-1.514-7.115-3.758-9.96-6.603s-5.089-6.229-6.598-9.955c-1.514-3.726-2.262-7.72-2.199-11.74v-416.902h-216.242v170.207c-0.058 7.827-3.152 15.32-8.637 20.903-5.485 5.587-12.925 8.82-20.747 9.016h-156.227c-8.078 0.085-15.866-3.001-21.693-8.597-5.827-5.592-9.228-13.25-9.472-21.321v-170.207h-215.664v402.966c0 7.938-3.154 15.556-8.769 21.17s-13.231 8.771-21.171 8.771c-7.94 0-15.556-3.157-21.171-8.771s-8.769-13.232-8.769-21.17v-433.464c0.047-7.787 3.155-15.244 8.653-20.76 5.498-5.512 12.945-8.646 20.732-8.713h277.326c7.787 0.067 15.235 3.201 20.734 8.713 5.494 5.516 8.606 12.974 8.651 20.76v170.207h96.479v-170.207c0.053-3.945 0.882-7.836 2.449-11.455 1.563-3.62 3.829-6.892 6.66-9.635 2.836-2.738 6.184-4.888 9.857-6.331 3.669-1.438 7.591-2.137 11.531-2.052h276.035c7.787 0.067 15.235 3.201 20.734 8.713 5.494 5.516 8.606 12.974 8.651 20.76v447.399c0.093 3.94-0.597 7.863-2.026 11.536-1.434 3.669-3.58 7.021-6.318 9.857-2.738 2.84-6.010 5.102-9.63 6.665s-7.515 2.391-11.455 2.44zM1049.351 441.411l-240.417 241.619v164.73c-0.004 4.056-0.819 8.070-2.4 11.807-1.576 3.737-3.882 7.121-6.785 9.953s-6.344 5.057-10.12 6.542c-3.771 1.485-7.805 2.201-11.861 2.106-3.931-0.052-7.814-0.882-11.42-2.441-3.611-1.559-6.874-3.817-9.603-6.644-2.734-2.827-4.88-6.166-6.313-9.826s-2.133-7.567-2.048-11.497v-104.403l-198.522 199.769c-2.618 2.867-5.783 5.183-9.305 6.812-3.526 1.628-7.342 2.537-11.219 2.672-4.060-0.042-8.067-0.904-11.785-2.533-3.722-1.63-7.070-3.993-9.853-6.95l-498.421-498.376c-2.924-2.676-5.258-5.926-6.856-9.554-1.597-3.624-2.422-7.542-2.422-11.504s0.825-7.88 2.422-11.509c1.597-3.624 3.932-6.879 6.856-9.55 2.677-2.916 5.932-5.249 9.557-6.843 3.625-1.589 7.542-2.413 11.502-2.413s7.877 0.824 11.502 2.413c3.625 1.594 6.88 3.927 9.557 6.843l477.941 476.782 476.872-481.279c2.898-2.685 6.309-4.759 10.026-6.099 3.718-1.336 7.667-1.914 11.611-1.692 7.907-0.040 15.569 2.72 21.638 7.791 5.525 5.859 8.593 13.61 8.566 21.664-0.027 8.050-3.139 15.787-8.7 21.611z" />
<glyph unicode="&#xe90e;" glyph-name="groceries-icon" horiz-adv-x="977" d="M0 918.955v-306.781c0.025-22.723 7.56-44.802 21.433-62.8s33.306-30.905 55.274-36.715v-551.515h804.399v551.515c21.969 5.809 41.402 18.717 55.273 36.715 13.875 17.998 21.411 40.076 21.434 62.8v306.781h-957.812zM750.173 862.821v-250.647c0-12.406-4.929-24.304-13.703-33.077-8.769-8.772-20.671-13.701-33.075-13.701s-24.306 4.929-33.075 13.701c-8.774 8.773-13.703 20.671-13.703 33.077v250.647h93.556zM600.529 862.821v-250.647c0-12.406-4.929-24.304-13.703-33.077-8.769-8.772-20.671-13.701-33.075-13.701s-24.306 4.929-33.075 13.701c-8.774 8.773-13.703 20.671-13.703 33.077v250.647h93.556zM450.886 862.821v-250.647c0-12.406-4.928-24.304-13.701-33.077s-20.671-13.701-33.077-13.701c-12.406 0-24.305 4.929-33.077 13.701s-13.701 20.671-13.701 33.077v250.647h93.556zM301.242 862.821v-250.647c0-12.406-4.928-24.304-13.701-33.077s-20.671-13.701-33.077-13.701c-12.406 0-24.305 4.929-33.077 13.701s-13.701 20.671-13.701 33.077v250.647h93.556zM56.134 612.173v250.647h95.418v-250.647c-0.073-12.322-5.001-24.118-13.714-32.831s-20.51-13.641-32.832-13.714h-1.862c-12.403-0.049-24.318 4.824-33.132 13.55s-13.805 20.593-13.879 32.995zM132.841 17.278v495.893c17.79 5.123 33.869 14.948 46.545 28.439 9.598-10.222 21.189-18.37 34.058-23.939s26.742-8.443 40.764-8.443c14.022 0 27.896 2.873 40.764 8.443s24.46 13.716 34.058 23.939c9.598-10.222 21.189-18.37 34.058-23.939s26.742-8.443 40.764-8.443c14.022 0 27.896 2.873 40.764 8.443s24.46 13.716 34.058 23.939c9.598-10.222 21.187-18.37 34.057-23.939s26.74-8.443 40.765-8.443c14.024 0 27.895 2.873 40.765 8.443s24.46 13.716 34.057 23.939c9.598-10.222 21.187-18.37 34.057-23.939s26.74-8.443 40.765-8.443c14.024 0 27.895 2.873 40.765 8.443s24.46 13.716 34.057 23.939c12.674-13.492 28.756-23.316 46.545-28.439v-495.893h-691.665zM901.679 612.173c-0.074-12.322-4.999-24.118-13.712-32.831s-20.513-13.641-32.833-13.714h-1.862c-12.321 0.074-24.12 5.001-32.833 13.714s-13.638 20.509-13.712 32.831v250.647h95.418l-0.465-250.647zM189.636 385.033l67.351 67.351 39.703-39.703-67.351-67.347-39.703 39.699zM208.364 229.814l203.916 203.916 39.703-39.703-203.915-203.916-39.704 39.703z" />
<glyph unicode="&#xe90f;" glyph-name="grid-view-m" d="M18.824 941.176h410.353v-410.353h-410.353v410.353zM109.176 850.824v-229.647h229.647v229.647h-229.647zM18.824 365.176h410.353v-410.353h-410.353v410.353zM109.176 274.824v-229.647h229.647v229.647h-229.647zM594.824 941.176h410.353v-410.353h-410.353v410.353zM685.176 850.824v-229.647h229.647v229.647h-229.647zM594.824 365.176h410.353v-410.353h-410.353v410.353zM685.176 274.824v-229.647h229.647v229.647h-229.647z" />
<glyph unicode="&#xe910;" glyph-name="grid-view-sm" d="M15.059 944.941h271.059v-271.059h-271.059v271.059zM105.412 854.588v-90.353h90.353v90.353h-90.353zM376.471 944.941h271.059v-271.059h-271.059v271.059zM466.824 854.588v-90.353h90.353v90.353h-90.353zM737.882 944.941h271.059v-271.059h-271.059v271.059zM828.235 854.588v-90.353h90.353v90.353h-90.353zM15.059 583.529h271.059v-271.059h-271.059v271.059zM105.412 493.176v-90.353h90.353v90.353h-90.353zM376.471 583.529h271.059v-271.059h-271.059v271.059zM466.824 493.176v-90.353h90.353v90.353h-90.353zM737.882 583.529h271.059v-271.059h-271.059v271.059zM828.235 493.176v-90.353h90.353v90.353h-90.353zM15.059 222.118h271.059v-271.059h-271.059v271.059zM105.412 131.765v-90.353h90.353v90.353h-90.353zM376.471 222.118h271.059v-271.059h-271.059v271.059zM466.824 131.765v-90.353h90.353v90.353h-90.353zM737.882 222.118h271.059v-271.059h-271.059v271.059zM828.235 131.765v-90.353h90.353v90.353h-90.353z" />
<glyph unicode="&#xe911;" glyph-name="facebook-icon" horiz-adv-x="512" d="M418.525 789.974h93.475v162.816c-16.127 2.219-71.589 7.211-136.18 7.211-295.741 0-215.278-334.934-227.054-384h-148.766v-182.016h148.724v-457.984h182.342v457.942h142.708l22.654 182.016h-165.405c8.020 120.49-32.467 214.016 87.502 214.016z" />
<glyph unicode="&#xe912;" glyph-name="electronic-svg" horiz-adv-x="712" d="M598.461 920.478h-498.688c-26.442-0.012-51.8-10.515-70.506-29.204s-29.232-44.037-29.267-70.48v-780.021c0.012-26.459 10.527-51.828 29.236-70.536s44.079-29.224 70.537-29.237h498.643c26.441 0.013 51.801 10.516 70.505 29.206 18.708 18.686 29.233 44.036 29.269 70.478v780.11c-0.036 26.435-10.556 51.776-29.251 70.464-18.699 18.688-44.045 29.197-70.478 29.22v0zM226.794 863.090h244.87v-16.25c0-3.169-1.256-6.208-3.491-8.452-2.239-2.245-5.271-3.512-8.441-3.524h-221.006c-3.169 0.012-6.203 1.279-8.44 3.524s-3.492 5.284-3.492 8.452v16.25zM640.846 40.773c-0.022-11.224-4.501-21.985-12.444-29.914-7.947-7.929-18.717-12.381-29.941-12.381h-498.688c-11.226 0-21.993 4.452-29.939 12.381s-12.422 18.69-12.446 29.914v780.021c0.024 11.226 4.499 21.984 12.446 29.913s18.713 12.383 29.939 12.382h69.409v-16.25c0.012-9.115 1.819-18.138 5.318-26.555s8.621-16.062 15.075-22.499c6.454-6.437 14.112-11.54 22.537-15.017s17.454-5.261 26.569-5.25h220.783c18.387 0.024 36.009 7.341 49.005 20.346s20.302 30.634 20.315 49.019v16.206h69.632c11.224 0 21.994-4.453 29.941-12.382 7.943-7.929 12.422-18.688 12.444-29.913v-780.021h0.045zM409.571 93.042h-120.877c-7.61 0-14.909-3.023-20.29-8.401-5.381-5.383-8.404-12.68-8.404-20.293 0-7.609 3.023-14.906 8.404-20.289s12.68-8.406 20.29-8.406h120.877c7.61 0 14.909 3.023 20.29 8.406s8.404 12.68 8.404 20.289c0 7.613-3.023 14.91-8.404 20.293-5.381 5.378-12.68 8.401-20.29 8.401z" />
<glyph unicode="&#xe913;" glyph-name="dart-icon" d="M870.212 673.144l126.976 126.763c4.036 4.025 6.788 9.158 7.906 14.749s0.55 11.387-1.63 16.655c-2.18 5.268-5.871 9.771-10.611 12.938s-10.317 4.856-16.017 4.852h-57.643v53.803c0.013 5.747-1.694 11.366-4.898 16.136-3.209 4.769-7.77 8.47-13.094 10.627-5.329 2.157-11.179 2.67-16.798 1.474-5.623-1.196-10.756-4.046-14.746-8.183l-122.965-126.976c-5.205-5.377-8.111-12.57-8.107-20.053v-66.731c-84.565 73.045-194.167 110.445-305.745 104.333-111.579-6.113-216.438-55.261-292.519-137.107s-117.454-190.010-115.416-301.737c2.038-111.727 47.329-218.308 126.346-297.323 79.016-79.019 185.598-124.309 297.325-126.349 111.727-2.035 219.891 39.334 301.734 115.418 81.847 76.083 130.995 180.941 137.109 292.518s-31.287 221.179-104.333 305.745h66.688c3.793-0.008 7.552 0.734 11.063 2.184 3.507 1.45 6.69 3.578 9.374 6.264zM720.879 115.319c-51.686-51.657-117.312-87.121-188.843-102.054s-145.862-8.683-213.897 17.98c-68.035 26.662-126.819 72.585-169.158 132.139-42.338 59.558-66.392 130.172-69.218 203.187-2.826 73.020 15.7 145.276 53.309 207.929 37.609 62.651 92.669 112.978 158.44 144.819s139.399 43.814 211.869 34.453c72.474-9.36 140.642-39.648 196.164-87.155l-40.917-40.917c-62.592 52.108-142.865 78.082-224.119 72.518s-157.237-42.237-212.144-102.391c-54.906-60.154-84.51-139.159-82.654-220.584 1.856-81.421 35.029-158.997 92.619-216.585 57.59-57.591 135.165-90.765 216.588-92.621 81.425-1.856 160.431 27.746 220.582 82.654 60.156 54.908 96.828 130.889 102.391 212.143s-20.407 161.527-72.516 224.12l40.917 40.917c61.559-71.948 93.747-164.451 90.15-259.072s-42.718-184.414-109.564-251.477zM456.004 468.557c-18.692-0.034-36.871-6.14-51.795-17.395-14.924-11.26-25.787-27.059-30.956-45.026-5.168-17.963-4.361-37.12 2.299-54.588s18.814-32.299 34.632-42.261c15.818-9.963 34.445-14.519 53.073-12.979 18.633 1.536 36.258 9.084 50.227 21.504 13.973 12.42 23.531 29.043 27.238 47.364 3.708 18.325 1.361 37.355-6.682 54.229l42.155 42.155c19.639-29.739 27.541-65.711 22.174-100.941-5.372-35.234-23.633-67.217-51.243-89.749-27.61-22.537-62.601-34.018-98.197-32.222-35.592 1.796-69.251 16.742-94.452 41.941-25.201 25.203-40.148 58.859-41.944 94.455-1.796 35.593 9.687 70.583 32.222 98.193s54.519 45.871 89.752 51.243c35.23 5.367 71.202-2.53 100.941-22.174l-42.155-42.155c-11.644 5.555-24.388 8.431-37.291 8.405zM484.804 382.157c0-5.696-1.69-11.264-4.855-16-3.162-4.736-7.663-8.427-12.924-10.607s-11.055-2.752-16.64-1.638c-5.585 1.109-10.718 3.853-14.746 7.881s-6.771 9.161-7.881 14.746c-1.113 5.589-0.542 11.379 1.638 16.64 2.18 5.265 5.871 9.762 10.607 12.928 4.736 3.162 10.304 4.851 16 4.851 3.789 0.013 7.543-0.725 11.042-2.172 3.503-1.446 6.686-3.571 9.361-6.255 2.679-2.679 4.8-5.862 6.238-9.37 1.442-3.503 2.176-7.258 2.159-11.046v0.043zM576.708 543.48c-40.789 30.487-91.61 44.394-142.238 38.923-50.626-5.471-97.302-29.914-130.635-68.41-33.333-38.498-50.848-88.192-49.021-139.081s22.86-99.196 58.867-135.206c36.008-36.006 84.317-57.041 135.206-58.867s100.582 15.689 139.081 49.024c38.494 33.331 62.938 80.009 68.407 130.637 5.474 50.624-8.435 101.444-38.921 142.234l41.088 41.088c41.28-51.695 61.205-117.236 55.676-183.16-5.525-65.924-36.083-127.228-85.397-171.328s-113.643-67.644-179.772-65.801c-66.131 1.843-129.045 28.937-175.825 75.716s-73.873 109.696-75.717 175.825c-1.844 66.129 21.7 130.458 65.799 179.771s105.405 79.872 171.33 85.399c65.924 5.528 131.465-14.395 183.159-55.677l-41.088-41.088zM796.1 722.168v42.112l65.323 67.456v-11.435c0-7.638 3.034-14.964 8.435-20.365s12.727-8.435 20.365-8.435h16.811l-69.077-69.163-41.856-0.171z" />
<glyph unicode="&#xe914;" glyph-name="cooker-icon" horiz-adv-x="975" d="M236.139 226.231c-2.763-5.929-7.767-10.513-13.911-12.756-6.144-2.238-12.926-1.95-18.857 0.809l-109.421 51.005c-5.875 2.804-10.404 7.812-12.603 13.936s-1.887 12.873 0.866 18.768c2.753 5.9 7.724 10.469 13.831 12.717 6.107 2.253 12.856 1.994 18.776-0.707l109.422-51.005c5.919-2.775 10.496-7.778 12.726-13.922s1.932-12.922-0.829-18.846zM183.281 670.549h4.876v-175.25c0-6.544 2.6-12.82 7.227-17.447s10.903-7.227 17.447-7.227c6.543 0 12.82 2.599 17.447 7.227s7.227 10.903 7.227 17.447v175.25h245.955c38.371 0.039 75.162 15.299 102.293 42.432s42.394 63.922 42.433 102.294c0 6.544-2.599 12.82-7.227 17.447s-10.903 7.227-17.447 7.227c-6.544 0-12.82-2.599-17.447-7.227s-7.227-10.903-7.227-17.447c-0.024-25.288-10.084-49.533-27.965-67.414s-42.125-27.938-67.414-27.964h-300.178c-25.296 0-49.556 10.049-67.443 27.936s-27.936 42.147-27.936 67.443c0 25.296 10.049 49.556 27.936 67.443s42.147 27.936 67.443 27.936h138.971c-22.89-25.928-35.515-59.329-35.499-93.915 0-6.544 2.6-12.82 7.227-17.447s10.903-7.227 17.447-7.227c6.544 0 12.82 2.599 17.447 7.227s7.227 10.903 7.227 17.447c0.219 25.043 10.345 48.981 28.163 66.58s41.879 27.427 66.923 27.336h352.11c25.298 0 49.557-10.049 67.443-27.936s27.936-42.147 27.936-67.443c0-25.296-10.050-49.556-27.936-67.443s-42.145-27.936-67.443-27.936h-119.808c-6.544 0-12.82-2.599-17.447-7.227s-7.227-10.903-7.227-17.447c0-6.544 2.599-12.82 7.227-17.447s10.903-7.227 17.447-7.227h65.877v-175.25c0-6.544 2.599-12.82 7.227-17.447s10.903-7.227 17.447-7.227c6.544 0 12.82 2.599 17.447 7.227s7.227 10.903 7.227 17.447v175.25h4.876c38.385 0 75.196 15.248 102.337 42.389s42.389 63.953 42.389 102.336c0 38.383-15.248 75.195-42.389 102.336s-63.951 42.389-102.337 42.389h-600.308c-38.383 0-75.195-15.248-102.336-42.389s-42.389-63.953-42.389-102.336c0-38.383 15.248-75.195 42.389-102.336s63.953-42.389 102.336-42.389zM875.7 326.437c-5.988 2.638-12.78 2.789-18.876 0.419-6.1-2.365-11.010-7.061-13.648-13.049-3.023-7.739-8.806-14.082-16.238-17.798l-60.27-28.428c-7.563-3.287-16.067-3.667-23.893-1.073-6.266 1.712-12.956 0.887-18.612-2.297-5.661-3.189-9.835-8.48-11.62-14.726-1.785-6.242-1.034-12.941 2.087-18.637s8.363-9.933 14.59-11.786c8.051-2.331 16.389-3.53 24.771-3.56 11.571-0.034 23.011 2.477 33.499 7.363l60.367 28.136c18.31 8.748 32.753 23.937 40.57 42.667 2.638 5.988 2.789 12.776 0.419 18.876s-7.061 11.010-13.049 13.648l-0.098 0.244zM253.206 321.56l-109.422 51.005c-5.92 2.701-12.668 2.96-18.776 0.707-6.107-2.248-11.078-6.817-13.831-12.717-2.753-5.895-3.064-12.644-0.866-18.768s6.728-11.132 12.602-13.936l109.422-51.005c5.921-2.701 12.669-2.96 18.776-0.707 6.107 2.248 11.078 6.817 13.831 12.717 2.753 5.895 3.064 12.644 0.866 18.768s-6.728 11.132-12.602 13.936zM958.839 263.046c-5.691-15.813-14.458-30.345-25.8-42.75s-25.029-22.435-40.272-29.516l-87.771-41.009c-26.902-12.444-57.281-15.199-85.987-7.807s-53.97 24.483-71.514 48.377l-97.085-45.251 318.074-148.334c2.965-1.351 5.627-3.282 7.846-5.666 2.214-2.389 3.93-5.193 5.057-8.251s1.638-6.305 1.502-9.562c-0.137-3.252-0.917-6.451-2.297-9.401-1.375-2.95-3.326-5.603-5.73-7.797-2.409-2.194-5.227-3.891-8.294-4.988-3.067-1.102-6.32-1.585-9.572-1.419-3.252 0.161-6.441 0.965-9.382 2.37l-355.621 165.79-354.207-165.157c-5.92-2.701-12.668-2.96-18.776-0.707-6.107 2.248-11.078 6.817-13.831 12.717-2.753 5.895-3.064 12.644-0.866 18.768s6.728 11.132 12.602 13.936l316.66 147.651-95.72 44.52c-17.545-23.893-42.81-40.984-71.515-48.377s-59.083-4.637-85.987 7.807l-138.727 64.658c-17.279 8.124-30.631 22.767-37.13 40.716-6.499 17.954-5.614 37.751 2.461 55.052l47.299 101.425c8.097 17.291 22.717 30.671 40.658 37.205s37.74 5.691 55.061-2.341l138.679-64.658c26.825-12.61 48.465-34.104 61.254-60.845s15.937-57.081 8.914-85.879l133.218-62.123 134.632 62.757c-7.070 28.799-3.945 59.158 8.85 85.909s34.46 48.245 61.318 60.816l87.771 41.009c22.962 10.767 48.601 14.463 73.669 10.62 25.064-3.842 48.425-15.048 67.106-32.193 18.686-17.15 31.851-39.463 37.825-64.107 5.968-24.644 4.481-50.512-4.276-74.308l-0.098 0.341zM308.209 291.962c-3.486 9.723-8.867 18.651-15.832 26.278s-15.373 13.795-24.739 18.144l-138.776 64.561c-5.456 2.501-11.679 2.755-17.319 0.702-5.641-2.058-10.245-6.251-12.816-11.674l-47.299-101.425c-2.528-5.452-2.794-11.683-0.737-17.335 2.056-5.647 6.266-10.25 11.709-12.8l138.679-64.658c14.099-6.646 29.857-8.948 45.269-6.612 15.411 2.341 29.777 9.216 41.267 19.749s19.585 24.249 23.253 39.4c3.667 15.15 2.742 31.047-2.658 45.67zM910.029 340.041c-8.836 18.89-24.81 33.504-44.407 40.638-19.602 7.129-41.228 6.193-60.138-2.604l-87.771-41.009c-18.325-8.567-32.651-23.864-40.004-42.711s-7.173-39.804 0.507-58.519c1.161-2.102 2.175-4.286 3.023-6.534 9.445-17.871 25.381-31.442 44.529-37.917 19.149-6.48 40.053-5.369 58.407 3.101l87.771 41.009c18.842 8.88 33.412 24.844 40.536 44.417s6.227 41.165-2.501 60.080l0.049 0.049z" />
<glyph unicode="&#xe915;" glyph-name="check-icon" horiz-adv-x="1170" d="M1118.378 722.037l-662.407-682.481-404.257 416.508 188.949 183.391 215.308-221.831 473.458 487.805 188.948-183.392z" />
<glyph unicode="&#xe916;" glyph-name="attach-icon" d="M928.117 836.867c-127.621 127.628-335.293 127.628-462.937 0l-396.816-396.814c-91.158-91.17-91.152-239.506 0.012-330.666 45.586-45.586 105.446-68.379 165.33-68.373 59.868 0.006 119.76 22.793 165.338 68.373l363.739 363.744c26.498 26.496 41.093 61.726 41.099 99.198 0 37.474-14.589 72.702-41.093 99.206-54.706 54.698-143.715 54.696-198.407-0.010l-237.87-237.864c-18.262-18.26-18.262-47.87-0.004-66.134 18.26-18.265 47.87-18.259 66.134 0l237.87 237.866c18.233 18.234 47.899 18.238 66.138 0.004 8.83-8.832 13.698-20.576 13.698-33.066s-4.867-24.23-13.698-33.066l-363.74-363.746c-54.702-54.694-143.702-54.7-198.4 0s-54.702 143.703-0.010 198.405l396.814 396.808c91.175 91.168 239.51 91.168 330.67 0 44.165-44.16 68.488-102.878 68.488-165.332s-24.323-121.172-68.488-165.336l-396.81-396.822c-18.26-18.257-18.26-47.869 0.004-66.132 9.132-9.132 21.1-13.698 33.066-13.698 11.968 0 23.936 4.572 33.068 13.698l396.805 396.819c61.832 61.826 95.877 144.030 95.883 231.47 0 87.438-34.051 169.642-95.883 231.468z" />
<glyph unicode="&#xe917;" glyph-name="arrow-right-icon" horiz-adv-x="1792" d="M128 512c-35.346 0-64-28.654-64-64s28.654-64 64-64v128zM1709.261 402.746c24.986 24.993 24.986 65.516 0 90.509l-407.296 407.294c-24.997 24.994-65.519 24.994-90.513 0s-24.995-65.516 0-90.509l362.039-362.039-362.039-362.039c-24.995-24.993-24.995-65.516 0-90.509 24.993-24.995 65.516-24.995 90.513 0l407.296 407.293zM128 384h1536v128h-1536v-128z" />
<glyph unicode="&#xe918;" glyph-name="angle-right-icon" horiz-adv-x="640" d="M601.439 409.636l-416-415.616c-6.245-6.472-13.718-11.635-21.98-15.187s-17.149-5.423-26.143-5.504-17.913 1.632-26.237 5.037c-8.324 3.405-15.887 8.434-22.246 14.793s-11.388 13.923-14.793 22.246c-3.405 8.324-5.117 17.244-5.037 26.237s1.951 17.88 5.504 26.143c3.553 8.262 8.716 15.734 15.187 21.979l368.001 368-368.001 368.256c-12.325 12.772-19.142 29.873-18.983 47.622s7.279 34.725 19.83 47.276c12.551 12.551 29.527 19.671 47.276 19.83s34.849-6.659 47.622-18.983l416-416c12.694-12.698 19.825-29.917 19.825-47.872s-7.131-35.174-19.825-47.872v-0.384z" />
<glyph unicode="&#xe919;" glyph-name="angle-down-icon" horiz-adv-x="1707" d="M769.71-27.24l-733.203 771.342c-11.417 11.58-20.525 25.434-26.793 40.753-6.267 15.321-9.568 31.799-9.709 48.474s2.879 33.214 8.885 48.649c6.006 15.435 14.878 29.457 26.097 41.248s24.56 21.116 39.246 27.429c14.686 6.313 30.42 9.488 46.285 9.34s31.544-3.618 46.12-10.205c14.576-6.587 27.757-16.16 38.775-28.16l649.201-682.341 649.655 682.341c22.531 22.853 52.7 35.492 84.011 35.199s61.261-13.498 83.401-36.769c22.141-23.271 34.703-54.749 34.982-87.657s-11.747-64.619-33.488-88.3l-733.88-771.342c-22.402-23.537-52.779-36.76-84.453-36.76-31.676 0-62.053 13.223-84.453 36.76h-0.678z" />
<glyph unicode="&#xe91a;" glyph-name="alert-icon" d="M511.965 917.342c-92.825 0-183.566-27.526-260.748-79.097s-137.337-124.871-172.86-210.63c-35.523-85.759-44.817-180.127-26.708-271.166 18.109-91.044 62.809-174.673 128.446-240.311 65.637-65.633 149.265-110.333 240.306-128.442 91.042-18.114 185.407-8.817 271.169 26.705 85.757 35.522 159.060 95.679 210.631 172.862 51.572 77.177 79.096 167.92 79.096 260.746-0.146 124.43-49.642 243.722-137.626 331.707-87.989 87.985-207.279 137.48-331.709 137.626zM511.965 64.011c-75.948 0-150.19 22.517-213.339 64.711s-112.367 102.168-141.431 172.334c-29.064 70.171-36.668 147.379-21.852 221.867s51.389 142.911 105.093 196.614c53.703 53.703 122.125 90.276 196.614 105.093s151.696 7.212 221.867-21.852c70.166-29.064 130.14-78.282 172.334-141.431s64.717-137.391 64.717-213.339c-0.129-101.805-40.626-199.403-112.613-271.39s-169.585-112.484-271.39-112.608zM512.036 704c-11.316 0-22.169-4.495-30.17-12.497s-12.497-18.854-12.497-30.17v-298.665c0-11.318 4.495-22.172 12.497-30.17 8.002-8.003 18.854-12.498 30.17-12.498s22.169 4.495 30.172 12.498c7.998 7.998 12.493 18.852 12.493 30.17v298.665c0 11.316-4.495 22.169-12.493 30.17-8.004 8.001-18.857 12.497-30.172 12.497zM512.036 192.005c23.564 0 42.665 19.106 42.665 42.668 0 23.568-19.101 42.668-42.665 42.668s-42.667-19.1-42.667-42.668c0-23.563 19.103-42.668 42.667-42.668z" />
</font>
</defs>
</svg>
